<?xml version="1.0" standalone="no"?>
<!DOCTYPE svg PUBLIC "-//W3C//DTD SVG 1.1//EN" "http://www.w3.org/Graphics/SVG/1.1/DTD/svg11.dtd" >
<svg xmlns="http://www.w3.org/2000/svg">
<metadata>
Created by FontPrep 20130207 at Mon Feb  1 21:44:33 2016
 By Steve Graegert
Copyright (c) 1988, 1990, 1993, 2003 Linotype Library GmbH, www.linotype.com. All rights reserved. Copyright (c) 1988, 1990, 1993 Adobe Systems Incorporated. All Rights Reserved.
</metadata>
<defs>
<font id="3162d512a0b0767ee94e99606f47da13" horiz-adv-x='1024' >
  <font-face 
    font-family="HelveticaNeueLTPro-Lt"
    font-weight="300"
    font-stretch="normal"
    units-per-em="2048"
    panose-1="2 11 4 3 2 2 2 2 2 4"
    ascent="1462"
    descent="-586"
    x-height="1057"
    cap-height="1462"
    bbox="-340 -438 2150 1980"
    underline-thickness="102"
    underline-position="-102"
    unicode-range="U+000D-FB02"
  />
<missing-glyph horiz-adv-x="1048" 
d="M1049 1470v-1470h-1049v1470h1049zM946 102v1264h-844v-1264h844zM524 1145q-145 0 -168 -195l-102 17q14 141 88 211t186 70t185 -74q72 -74 71 -195q0 -70 -26 -123t-103 -122q-76 -68 -88 -108t-12 -147h-94l-4 35q1 115 29 169t92 118q63 59 82 94q20 35 20 93
t-46 107q-46 50 -110 50zM455 240v137h114v-137h-114z" />
    <glyph glyph-name="IJ" unicode="IJ" horiz-adv-x="1488" 
d="M1202 467v995h139v-1054q0 -226 -97 -332t-329 -107q-408 0 -407 500h139q0 -143 19 -189l16 -48t42 -68q64 -76 214 -76t207 85t57 294zM158 0v1462h139v-1462h-139z" />
    <glyph glyph-name="ij" unicode="ij" horiz-adv-x="763" 
d="M510 -129v1186h129v-1155q0 -293 -225 -293l-90 4v106q45 -4 69 -2q69 0 93 39t24 115zM510 1255v207h129v-207h-129zM125 0v1057h129v-1057h-129zM125 1255v207h129v-207h-129z" />
    <glyph glyph-name="napostrophe" unicode="&#x22;n" horiz-adv-x="1136" 
d="M45 1649h176v-164q0 -141 -176 -150v58q74 14 80 69h-80v187zM158 0v1057h129v-183h4q37 94 131 154t207 59q213 0 300 -103t87 -304v-680h-129v659q0 319 -269 320q-152 0 -240 -101t-91 -262v-616h-129z" />
    <glyph glyph-name="fi" unicode="fi" horiz-adv-x="909" 
d="M655 0v1057h129v-1057h-129zM193 0v948h-181v109h181v96q0 153 55 231t201 78q53 0 108 -8v-111q-114 20 -152 4q-39 -16 -53 -31q-30 -32 -30 -167v-92h208v-109h-208v-948h-129zM655 1255v207h129v-207h-129z" />
    <glyph glyph-name="fl" unicode="fl" horiz-adv-x="909" 
d="M193 0v948h-181v109h181v96q0 153 55 231t201 78q53 0 108 -8v-111q-114 20 -152 4q-39 -16 -53 -31q-30 -32 -30 -167v-92h208v-109h-208v-948h-129zM655 0v1462h129v-1462h-129z" />
    <glyph glyph-name=".notdef" horiz-adv-x="1048" 
d="M1049 1470v-1470h-1049v1470h1049zM946 102v1264h-844v-1264h844zM524 1145q-145 0 -168 -195l-102 17q14 141 88 211t186 70t185 -74q72 -74 71 -195q0 -70 -26 -123t-103 -122q-76 -68 -88 -108t-12 -147h-94l-4 35q1 115 29 169t92 118q63 59 82 94q20 35 20 93
t-46 107q-46 50 -110 50zM455 240v137h114v-137h-114z" />
    <glyph glyph-name=".null" horiz-adv-x="1024" 
 />
    <glyph glyph-name=".null" horiz-adv-x="1024" 
 />
    <glyph glyph-name="nonmarkingreturn" horiz-adv-x="681" 
 />
    <glyph glyph-name="CR" unicode="&#xd;" horiz-adv-x="0" 
 />
    <glyph glyph-name="space" unicode=" " horiz-adv-x="569" 
 />
    <glyph glyph-name="exclam" unicode="!" horiz-adv-x="493" 
d="M178 1462h139v-436l-30 -661h-78l-31 661v436zM334 0h-172v217h172v-217z" />
    <glyph glyph-name="quotedbl" unicode="&#x22;" horiz-adv-x="757" 
d="M178 965v497h129v-497h-129zM451 965v497h129v-497h-129z" />
    <glyph glyph-name="numbersign" unicode="#" 
d="M1018 549v-92h-227l-64 -457h-102l63 457h-289l-63 -457h-103l64 457h-225v92h237l45 319h-225v93h238l63 454h102l-63 -454h289l63 454h103l-64 -454h215v-93h-227l-45 -319h215zM745 868h-288l-45 -319h288z" />
    <glyph glyph-name="dollar" unicode="$" 
d="M606 78q143 0 244 75q100 75 100 219t-114 210q-90 52 -230 86v-590zM526 1384q-133 0 -217 -76t-84 -219q0 -144 97 -201q52 -30 90 -44t114 -31v571zM96 1094q0 180 124 290t306 109v160h80v-160q184 0 312 -124t122 -320h-129q-2 155 -86 245t-219 90v-589
q104 -23 176 -47q198 -67 259 -192q38 -75 38 -177q0 -193 -140 -301t-333 -109v-174h-80v176q-238 23 -348 141t-119 355h129q2 -350 338 -389v606q-324 65 -397 234q-33 74 -33 176z" />
    <glyph glyph-name="percent" unicode="%" horiz-adv-x="1820" 
d="M467 1354q-82 0 -133 -49q-52 -49 -68 -111t-16 -136q0 -75 16 -136q16 -62 68 -110t133 -48q115 0 166 88t51 206t-51 207t-166 89zM389 -70l928 1555h96l-926 -1555h-98zM1366 743q166 0 246 -105q80 -106 80 -282t-80 -281t-246 -105t-246 104q-80 106 -80 282t80 282
t246 105zM1366 651q-82 0 -133 -49t-67 -110q-16 -60 -17 -136q0 -76 16 -137q15 -61 67 -109t134 -49q115 1 166 89t51 206t-51 206q-51 89 -166 89zM467 1446q166 0 246 -106t80 -281t-80 -281t-246 -106t-246 105t-80 281t80 282t246 106z" />
    <glyph glyph-name="ampersand" unicode="&#x26;" horiz-adv-x="1251" 
d="M209 367q0 -125 95 -207t222 -82q199 0 346 209l-364 442q-299 -160 -299 -362zM522 -31q-194 0 -318 109t-124 301q0 242 358 434q-6 8 -62 78t-80 124q-38 84 -38 150q0 131 93 214t231 83t230 -83q93 -83 93 -210t-75 -212t-212 -171l320 -385q43 88 43 246h129
q0 -190 -86 -350l246 -297h-162l-156 190q-176 -221 -430 -221zM582 1354q-84 0 -140 -50t-55 -139q0 -47 32 -108q31 -61 57 -95t75 -92q67 43 107 76t79 92t39 137q0 79 -55 129t-139 50z" />
    <glyph glyph-name="quotesingle" unicode="'" horiz-adv-x="569" 
d="M221 965v497h129v-497h-129z" />
    <glyph glyph-name="parenleft" unicode="(" horiz-adv-x="493" 
d="M104 545q0 502 289 948h103q-262 -422 -263 -995q0 -219 72 -460t191 -429h-103q-145 242 -217 462t-72 474z" />
    <glyph glyph-name="parenright" unicode=")" horiz-adv-x="493" 
d="M389 557q0 -502 -289 -948h-102q262 422 262 995q0 216 -72 452t-190 437h102q145 -242 217 -462t72 -474z" />
    <glyph glyph-name="asterisk" unicode="*" horiz-adv-x="720" 
d="M319 1462h80v-252l236 84l31 -75l-242 -80l147 -201l-65 -47l-150 205l-149 -205l-66 47l150 201l-236 80l29 75l235 -84v252z" />
    <glyph glyph-name="plus" unicode="+" horiz-adv-x="1228" 
d="M561 569v461h109v-461h460v-108h-460v-461h-109v461h-461v108h461z" />
    <glyph glyph-name="comma" unicode="," horiz-adv-x="569" 
d="M199 217h172v-219q0 -96 -47 -176t-134 -103v88q45 15 72 77t23 116h-86v217z" />
    <glyph glyph-name="hyphen" unicode="-" horiz-adv-x="757" 
d="M635 504h-512v119h512v-119z" />
    <glyph glyph-name="period" unicode="." horiz-adv-x="569" 
d="M371 0h-172v217h172v-217z" />
    <glyph glyph-name="slash" unicode="/" horiz-adv-x="681" 
d="M84 -31h-111l631 1524h105z" />
    <glyph glyph-name="zero" unicode="0" 
d="M569 1337q-371 1 -371 -629t372 -630q370 0 370 630t-371 629zM569 1446q121 0 212 -46t145 -117q144 -190 143 -575q0 -384 -143 -576q-52 -71 -144 -117t-213 -46t-212 46t-144 117t-87 172q-56 166 -56 403q0 384 143 576q53 71 144 117t212 46z" />
    <glyph glyph-name="one" unicode="1" 
d="M199 1065v92q249 6 315 72t88 205h105v-1434h-129v1065h-379z" />
    <glyph glyph-name="two" unicode="2" 
d="M1018 119v-119h-944q4 233 179 389q81 72 164 128t184 126t163 131q119 119 119 262t-93 222t-244 79q-151 1 -232 -113t-76 -286h-129q-4 229 113 369q118 139 329 139t336 -106t125 -284t-96 -296t-265 -228q-14 -10 -91 -58q-236 -147 -298 -251q-31 -51 -41 -104h797
z" />
    <glyph glyph-name="three" unicode="3" 
d="M544 78q162 0 270 85t108 232t-96 225t-248 78h-109v109h109q114 1 202 67t88 197t-88 199t-236 68t-233 -101q-86 -100 -82 -262h-129q0 207 124 339t318 132t325 -93q130 -93 130 -272q0 -119 -63 -203t-178 -114v-4q139 -23 217 -117t78 -237q-1 -203 -143 -320
t-360 -117t-358 131q-138 132 -122 357h129q-8 -171 89 -275t258 -104z" />
    <glyph glyph-name="four" unicode="4" 
d="M61 356v125l664 953h117v-969h215v-109h-215v-356h-119v356h-662zM723 465v780h-4l-541 -780h545z" />
    <glyph glyph-name="five" unicode="5" 
d="M561 78q156 0 254 115t98 275t-103 267q-103 106 -263 107q-207 0 -320 -170h-110l139 743h717v-119h-627l-92 -475l4 -4q53 61 135 97t168 36q219 0 350 -138t131 -351t-145 -352t-350 -139t-337 119q-132 120 -136 321h129q4 -148 103 -240t255 -92z" />
    <glyph glyph-name="six" unicode="6" 
d="M581 78q165 0 262 108t97 264q0 158 -93 266t-255 109t-258 -107t-96 -272t89 -266t254 -102zM211 696h4q51 106 155 172t226 66q213 0 343 -134t130 -345t-136 -349t-349 -137q-264 0 -383 174t-119 588q0 167 39 300t90 215t150 140q99 59 233 60q395 0 440 -375h-129
q-16 121 -96 194t-201 73t-204 -62q-135 -99 -178 -368q-15 -99 -15 -212z" />
    <glyph glyph-name="seven" unicode="7" 
d="M104 1296v119h922v-119q-142 -147 -248 -310t-166 -297t-108 -316q-47 -182 -58 -373h-139q25 367 159 663t431 633h-793z" />
    <glyph glyph-name="eight" unicode="8" 
d="M205 399q0 -153 102 -237t263 -84t263 82q101 82 101 235t-106 237t-259 81q-156 4 -260 -78t-104 -236zM1004 1087q0 -117 -62 -199t-172 -116v-4q139 -29 216 -125t77 -242q0 -207 -140 -319q-139 -112 -353 -113q-214 0 -354 113t-140 319q4 143 82 243t209 124v4
q-233 74 -234 315q0 171 129 265t305 94q177 0 307 -94t130 -265zM874 1082q0 124 -84 190t-216 66t-222 -68q-90 -66 -90 -192t91 -194t216 -63q127 -4 216 66q89 71 89 195z" />
    <glyph glyph-name="nine" unicode="9" 
d="M558 1337q-165 1 -262 -107t-97 -266t93 -266t255 -108t258 108t96 271q0 164 -89 266t-254 102zM530 78q392 0 398 641h-4q-50 -106 -154 -172t-227 -66q-213 0 -343 134q-130 133 -130 345t136 349t349 137q264 0 383 -174t119 -588q0 -167 -39 -300q-39 -132 -90 -214
q-50 -82 -150 -141t-233 -60q-396 0 -441 375h129q17 -122 97 -194t200 -72z" />
    <glyph glyph-name="colon" unicode=":" horiz-adv-x="569" 
d="M371 807h-172v217h172v-217zM371 0h-172v217h172v-217z" />
    <glyph glyph-name="semicolon" unicode=";" horiz-adv-x="569" 
d="M199 217h172v-219q0 -96 -47 -176t-134 -103v88q45 15 72 77t23 116h-86v217zM371 807h-172v217h172v-217z" />
    <glyph glyph-name="less" unicode="&#x3c;" horiz-adv-x="1228" 
d="M1135 96v-112l-1041 479v110l1041 480v-113l-914 -422z" />
    <glyph glyph-name="equal" unicode="=" horiz-adv-x="1228" 
d="M1130 774v-108h-1030v108h1030zM1130 371v-109h-1030v109h1030z" />
    <glyph glyph-name="greater" unicode="&#x3e;" horiz-adv-x="1228" 
d="M94 96l914 422l-914 422v113l1041 -480v-110l-1041 -479v112z" />
    <glyph glyph-name="question" unicode="?" horiz-adv-x="1099" 
d="M111 1012q0 219 122 350q123 131 342 131q176 0 296 -103t120 -276q0 -106 -45 -185t-133 -163l-63 -63q-42 -42 -50 -49t-32 -38t-24 -43q-1 -12 -10 -48q-9 -35 -9 -67t-2 -91h-129q-4 174 43 260t192 217q133 125 133 255t-86 208t-207 77q-161 0 -247 -104t-82 -268
h-129zM473 0v217h172v-217h-172z" />
    <glyph glyph-name="at" unicode="@" horiz-adv-x="1638" 
d="M872 1044q-145 0 -246 -156t-102 -317q0 -90 47 -144t123 -54q131 0 236 166q104 166 104 315q0 72 -51 131q-52 59 -111 59zM1087 354q133 0 240 165q106 165 107 343q0 246 -168 392t-432 146t-447 -195q-182 -197 -182 -479t186 -473t465 -192q152 0 296 74t232 199
h105q-92 -166 -266 -265t-367 -100q-330 0 -545 220q-215 219 -215 543t218 542t526 219q308 0 505 -178q198 -178 197 -459q0 -240 -148 -417t-327 -177q-55 0 -93 36t-44 101h-4q-131 -135 -257 -135t-200 86t-74 220q-1 134 59 268t174 225q114 90 260 90t210 -172
l51 133h108l-196 -590q-51 -170 26 -170z" />
    <glyph glyph-name="A" unicode="A" horiz-adv-x="1290" 
d="M-14 0l589 1462h156l574 -1462h-150l-178 455h-666l-176 -455h-149zM647 1323l-293 -750h576z" />
    <glyph glyph-name="B" unicode="B" horiz-adv-x="1366" 
d="M287 702v-583h479q385 0 385 301q0 139 -99 211t-286 71h-479zM147 0v1462h619q133 0 232 -30t168 -115q69 -84 69 -207t-71 -216t-183 -118v-4q141 -18 225 -116t84 -240q0 -198 -133 -311q-53 -45 -155 -75t-236 -30h-619zM287 1343v-522h479q160 0 245 70t85 178
q0 274 -330 274h-479z" />
    <glyph glyph-name="C" unicode="C" horiz-adv-x="1441" 
d="M780 1374q-152 0 -260 -55q-198 -100 -270 -351q-33 -112 -33 -237q0 -253 130 -440q65 -91 173 -147t248 -56q197 0 323 133t146 336h139q-28 -272 -190 -430t-418 -158q-168 1 -302 63t-217 168q-171 219 -171 531q0 311 171 531q83 106 217 168t302 63q221 0 390 -127
t198 -346h-139q-37 166 -161 260t-276 94z" />
    <glyph glyph-name="D" unicode="D" horiz-adv-x="1402" 
d="M287 1343v-1224h297q317 0 459 143t143 469q0 326 -142 469t-460 143h-297zM147 0v1462h506q672 -16 672 -731t-672 -731h-506z" />
    <glyph glyph-name="E" unicode="E" horiz-adv-x="1214" 
d="M147 0v1462h1010v-119h-870v-528h815v-119h-815v-577h880v-119h-1020z" />
    <glyph glyph-name="F" unicode="F" horiz-adv-x="1099" 
d="M147 0v1462h928v-119h-788v-528h700v-119h-700v-696h-140z" />
    <glyph glyph-name="G" unicode="G" horiz-adv-x="1517" 
d="M1397 743v-743h-101l-18 266h-4q-70 -150 -204 -224t-302 -73t-302 63t-217 168q-171 219 -171 531q0 311 171 531q83 106 217 168t302 63q238 0 404 -126t206 -359h-139q-14 137 -145 252t-326 114q-139 0 -248 -55q-198 -100 -270 -351q-33 -112 -33 -237
q0 -253 130 -440q65 -91 173 -147t248 -56q238 0 374 150t132 387h-498v118h621z" />
    <glyph glyph-name="H" unicode="H" horiz-adv-x="1441" 
d="M147 0v1462h140v-635h868v635h139v-1462h-139v709h-868v-709h-140z" />
    <glyph glyph-name="I" unicode="I" horiz-adv-x="454" 
d="M158 0v1462h139v-1462h-139z" />
    <glyph glyph-name="J" unicode="J" horiz-adv-x="1024" 
d="M737 467v995h140v-1054q1 -226 -97 -332t-329 -107q-408 0 -408 500h139q0 -143 19 -189l16 -48t42 -68t62 -49q78 -27 142 -27q160 0 217 85t57 294z" />
    <glyph glyph-name="K" unicode="K" horiz-adv-x="1327" 
d="M147 0v1462h140v-786l850 786h188l-653 -604l684 -858h-180l-609 762l-280 -260v-502h-140z" />
    <glyph glyph-name="L" unicode="L" horiz-adv-x="1099" 
d="M147 0v1462h140v-1343h819v-119h-959z" />
    <glyph glyph-name="M" unicode="M" horiz-adv-x="1705" 
d="M143 0v1462h205l506 -1282l504 1282h205v-1462h-140v1264h-4l-499 -1264h-132l-501 1264h-4v-1264h-140z" />
    <glyph glyph-name="N" unicode="N" horiz-adv-x="1441" 
d="M145 0v1462h156l852 -1237h4v1237h139v-1462h-155l-852 1237h-4v-1237h-140z" />
    <glyph glyph-name="O" unicode="O" horiz-adv-x="1517" 
d="M760 1493q221 0 380 -109q160 -110 234 -278t74 -375t-75 -376t-233 -277t-380 -109q-168 1 -302 63t-217 168q-171 219 -171 531q0 311 171 531q83 106 217 168t302 63zM209 731q0 -253 130 -440q65 -91 173 -147t248 -56q139 0 248 55t172 147q129 189 129 442
q0 252 -129 439q-63 91 -172 147t-248 56t-248 -55q-198 -100 -270 -351q-33 -112 -33 -237z" />
    <glyph glyph-name="P" unicode="P" horiz-adv-x="1290" 
d="M147 0v1462h650q199 0 317 -110t117 -308q0 -198 -118 -308t-316 -109h-510v-627h-140zM287 1343v-598h479q152 0 239 76t87 223q0 148 -87 224t-239 75h-479z" />
    <glyph glyph-name="Q" unicode="Q" horiz-adv-x="1517" 
d="M760 1374q-139 0 -248 -55q-198 -100 -270 -351q-33 -112 -33 -237q0 -253 130 -440q65 -91 173 -147t256 -56t262 72l-192 145l71 88l213 -162q186 174 187 500q0 254 -129 440q-63 91 -172 147t-248 56zM760 -31q-168 1 -302 63t-217 168q-171 219 -171 531
q0 311 171 531q83 106 217 168t302 63q221 0 380 -109q308 -211 308 -653q0 -367 -221 -579l209 -160l-70 -86l-227 172q-152 -109 -379 -109z" />
    <glyph glyph-name="R" unicode="R" horiz-adv-x="1366" 
d="M147 0v1462h670q193 0 319 -96t126 -285q0 -143 -74 -243t-211 -129v-4q135 -17 191 -101t65 -229q0 -85 12 -187q13 -102 25 -135t30 -53h-153q-28 42 -37 207q-14 280 -85 364t-210 78h-528v-649h-140zM287 1343v-575h520q133 0 224 78t91 211t-80 210t-235 76h-520z
" />
    <glyph glyph-name="S" unicode="S" horiz-adv-x="1290" 
d="M690 88q201 0 321 127q67 72 66 170q0 193 -301 264l-325 80q-152 39 -241 117t-89 222t96 271q51 68 157 111t251 43q231 0 386 -119t154 -336h-139q-8 160 -122 248t-276 88t-264 -70q-103 -70 -104 -221q0 -174 221 -223l357 -88q178 -47 278 -134t101 -251
q1 -97 -41 -175q-42 -79 -97 -126t-165 -82t-257 -35q-274 0 -435 128q-160 128 -148 384h139q-8 -393 477 -393z" />
    <glyph glyph-name="T" unicode="T" 
d="M-10 1343v119h1159v-119h-510v-1343h-139v1343h-510z" />
    <glyph glyph-name="U" unicode="U" horiz-adv-x="1402" 
d="M133 526v936h139v-905q0 -245 109 -357t319 -112t321 112q110 112 109 357v905h140v-936q0 -246 -140 -402t-429 -155q-288 1 -428 157t-140 400z" />
    <glyph glyph-name="V" unicode="V" horiz-adv-x="1214" 
d="M528 0l-542 1462h149l475 -1308h4l471 1308h148l-543 -1462h-162z" />
    <glyph glyph-name="W" unicode="W" horiz-adv-x="1857" 
d="M406 0l-406 1462h150l331 -1280h4l357 1280h174l358 -1280h4l334 1280h139l-403 -1462h-148l-370 1309h-4l-369 -1309h-151z" />
    <glyph glyph-name="X" unicode="X" horiz-adv-x="1175" 
d="M502 754l-496 708h164l414 -612l428 612h155l-499 -712l528 -750h-168l-444 645l-451 -645h-158z" />
    <glyph glyph-name="Y" unicode="Y" horiz-adv-x="1251" 
d="M555 0v602l-575 860h165l482 -741l479 741h166l-578 -860v-602h-139z" />
    <glyph glyph-name="Z" unicode="Z" horiz-adv-x="1175" 
d="M76 1343v119h1052v-123l-962 -1220h983v-119h-1139v123l963 1220h-897z" />
    <glyph glyph-name="bracketleft" unicode="[" horiz-adv-x="493" 
d="M485 -391h-329v1884h329v-109h-200v-1667h200v-108z" />
    <glyph glyph-name="backslash" unicode="\" horiz-adv-x="681" 
d="M709 -31h-111l-625 1524h105z" />
    <glyph glyph-name="bracketright" unicode="]" horiz-adv-x="493" 
d="M8 1493h330v-1884h-330v108h201v1667h-201v109z" />
    <glyph glyph-name="asciicircum" unicode="^" horiz-adv-x="1228" 
d="M209 487h-119l471 928h107l471 -928h-117l-410 799z" />
    <glyph glyph-name="underscore" unicode="_" horiz-adv-x="1024" 
d="M1024 -256h-1024v102h1024v-102z" />
    <glyph glyph-name="grave" unicode="`" horiz-adv-x="378" 
d="M207 1204l-270 289h159l215 -289h-104z" />
    <glyph glyph-name="a" unicode="a" horiz-adv-x="1062" 
d="M799 410v168h-4q-16 -31 -109 -48q-35 -6 -111 -17q-237 -34 -304 -81q-29 -20 -53 -58t-23 -87q0 -94 69 -152q70 -57 166 -57q156 0 262 91t107 241zM539 1087q389 0 389 -339v-562q0 -78 76 -77q23 0 40 8v-109q-41 -8 -83 -8q-90 0 -121 46t-31 138h-4
q-76 -113 -159 -164q-82 -51 -232 -51t-249 78t-99 232q0 102 54 181q36 53 129 89q92 36 384 69q90 8 128 36t38 108q0 121 -74 169t-202 48t-204 -60q-75 -61 -79 -186h-129q10 180 123 267q114 87 305 87z" />
    <glyph glyph-name="b" unicode="b" horiz-adv-x="1175" 
d="M969 528q0 117 -34 215t-115 167t-197 69q-187 0 -279 -132q-92 -133 -92 -319t91 -318t280 -132q117 0 197 68t115 167q34 98 34 215zM123 0v1462h129v-606h4q39 109 141 170t226 61q229 1 352 -159t123 -400t-123 -400t-352 -159q-129 -1 -231 61t-146 171h-4v-201
h-119z" />
    <glyph glyph-name="c" unicode="c" horiz-adv-x="1062" 
d="M569 979q-174 0 -272 -134q-98 -135 -98 -317t98 -316t272 -134q119 0 207 86t101 215h129q-27 -193 -143 -301t-294 -109q-233 0 -366 161q-133 160 -133 398t133 399t366 160q177 0 291 -92t137 -270h-129q-55 254 -299 254z" />
    <glyph glyph-name="d" unicode="d" horiz-adv-x="1175" 
d="M924 528q0 186 -91 318t-280 133q-117 0 -198 -69q-148 -126 -148 -381t148 -383q81 -69 198 -68q188 0 280 132q91 132 91 318zM1053 1462v-1462h-119v201h-4q-41 -102 -150 -167t-227 -65q-229 0 -352 160q-123 159 -123 399t123 400t352 159q123 0 225 -61t142 -170h4
v606h129z" />
    <glyph glyph-name="e" unicode="e" horiz-adv-x="1062" 
d="M199 494q0 -162 89 -289t259 -127q264 0 332 270h129q-88 -379 -461 -379q-238 0 -358 158t-119 401q0 321 205 476q112 84 273 84q160 0 270 -89q207 -166 194 -505h-813zM546 979q-148 1 -239 -109q-90 -110 -108 -268h684q-5 154 -97 266t-240 111z" />
    <glyph glyph-name="f" unicode="f" horiz-adv-x="530" 
d="M530 1057v-109h-208v-948h-129v948h-181v109h181v96q0 153 55 231t201 78q53 0 108 -8v-111q-114 20 -152 4q-39 -16 -53 -31q-30 -32 -30 -167v-92h208z" />
    <glyph glyph-name="g" unicode="g" 
d="M542 121q165 0 255 124t90 298t-85 305t-256 131t-259 -128t-88 -306t89 -301t254 -123zM1016 1057v-971q0 -248 -111 -378t-358 -130q-174 0 -300 81t-138 239h129q18 -109 104 -160t205 -51q176 0 258 100t82 299v143h-4q-45 -100 -134 -158t-202 -59q-242 0 -360 150
q-117 150 -117 385t128 388t349 152q113 0 204 -60t132 -153h4v183h129z" />
    <glyph glyph-name="h" unicode="h" horiz-adv-x="1099" 
d="M121 0v1462h129v-588h4q37 94 131 154t207 59q213 0 300 -103t87 -304v-680h-129v659q0 319 -268 320q-152 0 -240 -101t-92 -262v-616h-129z" />
    <glyph glyph-name="i" unicode="i" horiz-adv-x="378" 
d="M125 0v1057h129v-1057h-129zM125 1255v207h129v-207h-129z" />
    <glyph glyph-name="j" unicode="j" horiz-adv-x="378" 
d="M125 -129v1186h129v-1155q0 -293 -225 -293l-90 4v106q47 -4 69 -2q70 0 94 39t23 115zM125 1255v207h129v-207h-129z" />
    <glyph glyph-name="k" unicode="k" horiz-adv-x="1024" 
d="M123 0v1462h129v-917l586 512h172l-451 -391l481 -666h-161l-418 575l-209 -174v-401h-129z" />
    <glyph glyph-name="l" unicode="l" horiz-adv-x="378" 
d="M125 0v1462h129v-1462h-129z" />
    <glyph glyph-name="m" unicode="m" horiz-adv-x="1705" 
d="M123 0v1057h119v-178h6q109 209 346 208q110 0 192 -53t111 -153q45 100 136 153t200 53q350 0 350 -370v-717h-129v711q0 135 -57 201t-193 67q-287 0 -286 -381v-598h-130v717q0 262 -221 262q-159 -1 -237 -107t-78 -282v-590h-129z" />
    <glyph glyph-name="n" unicode="n" horiz-adv-x="1099" 
d="M121 0v1057h129v-183h4q37 94 131 154t207 59q213 0 300 -103t87 -304v-680h-129v659q0 319 -268 320q-152 0 -240 -101t-92 -262v-616h-129z" />
    <glyph glyph-name="o" unicode="o" 
d="M569 1087q233 0 367 -160q133 -161 133 -399t-133 -398q-132 -160 -366 -161q-234 0 -367 161q-133 160 -133 398t133 398t366 161zM569 979q-174 0 -272 -134q-98 -135 -98 -317t98 -316t272 -134t273 134q98 134 98 316t-98 317q-99 134 -273 134z" />
    <glyph glyph-name="p" unicode="p" horiz-adv-x="1175" 
d="M969 528q0 117 -34 215t-115 167t-197 69q-371 0 -371 -451q0 -186 91 -318t280 -132q117 0 197 68t115 167q34 98 34 215zM123 -391v1448h119v-201h4q45 109 146 170t231 61q229 1 352 -159t123 -400t-123 -400t-352 -159q-123 1 -225 61t-142 171h-4v-592h-129z" />
    <glyph glyph-name="q" unicode="q" horiz-adv-x="1175" 
d="M924 528q0 186 -91 318t-280 133q-117 0 -198 -69q-148 -126 -148 -381t148 -383q81 -69 198 -68q188 0 280 132q91 132 91 318zM1053 1057v-1448h-129v592h-4q-40 -111 -142 -171t-225 -61q-229 0 -352 160q-123 159 -123 399t123 400t352 159q119 -1 227 -65t150 -166
h4v201h119z" />
    <glyph glyph-name="r" unicode="r" horiz-adv-x="645" 
d="M123 0v1057h119v-248h4q49 131 153 200t246 62v-129q-172 8 -283 -102t-110 -277v-563h-129z" />
    <glyph glyph-name="s" unicode="s" horiz-adv-x="985" 
d="M488 979q-108 0 -184 -44q-75 -44 -75 -138q0 -123 220 -179l172 -38q127 -18 214 -92t87 -201q0 -158 -128 -238t-296 -80q-401 0 -435 373h130q8 -127 93 -196q85 -68 207 -68q123 0 211 50t88 142t-60 134q-62 40 -171 67l-166 37q-145 37 -220 98t-75 198
q0 136 119 210t282 74t269 -88q106 -86 115 -252h-129q-4 115 -82 173t-186 58z" />
    <glyph glyph-name="t" unicode="t" horiz-adv-x="606" 
d="M199 948h-185v109h185v317h129v-317h215v-109h-215v-712q0 -70 20 -103t80 -35t115 4v-110l-115 -4q-129 0 -180 51t-49 186v723z" />
    <glyph glyph-name="u" unicode="u" horiz-adv-x="1099" 
d="M979 1057v-1057h-119v190h-4q-49 -104 -147 -162t-217 -59q-371 0 -371 402v686h129v-688q4 -147 68 -219t218 -72q152 0 233 124t81 300v555h129z" />
    <glyph glyph-name="v" unicode="v" horiz-adv-x="948" 
d="M412 0l-408 1057h143l332 -928h4l328 928h133l-395 -1057h-137z" />
    <glyph glyph-name="w" unicode="w" horiz-adv-x="1517" 
d="M356 0l-340 1057h138l270 -905h4l258 905h145l259 -905h4l270 905h137l-340 -1057h-141l-260 889h-4l-258 -889h-142z" />
    <glyph glyph-name="x" unicode="x" horiz-adv-x="985" 
d="M2 0l410 549l-379 508h162l301 -402l295 402h161l-381 -506l412 -551h-164l-332 444l-325 -444h-160z" />
    <glyph glyph-name="y" unicode="y" horiz-adv-x="948" 
d="M426 4l-422 1053h137l348 -901l326 901h129l-459 -1219q-59 -139 -110 -184t-168 -45q-78 4 -98 10v109q105 -21 157 0q47 16 82 86q10 20 33 69z" />
    <glyph glyph-name="z" unicode="z" horiz-adv-x="948" 
d="M913 109v-109h-882v104l690 844h-643v109h807v-92l-699 -856h727z" />
    <glyph glyph-name="braceleft" unicode="{" horiz-adv-x="681" 
d="M600 -391h-102q-86 1 -133 69t-48 187v303q0 328 -147 328v108q147 0 147 328v305q-1 119 47 187t134 69h102v-109h-41q-57 0 -85 -60t-28 -150v-289q0 -162 -62 -246q-45 -63 -81 -86v-4q35 -22 72 -73q71 -99 71 -259v-289q0 -92 28 -151t85 -60h41v-108z" />
    <glyph glyph-name="bar" unicode="|" horiz-adv-x="454" 
d="M174 -438v2048h109v-2048h-109z" />
    <glyph glyph-name="braceright" unicode="}" horiz-adv-x="681" 
d="M82 1493h102q86 0 133 -69t48 -187v-303q0 -328 147 -328v-108q-147 0 -147 -328v-305q1 -119 -47 -188t-134 -68h-102v108h41q57 -1 85 59t28 152v289q0 195 108 303q18 18 35 29v4q-35 22 -72 73q-71 99 -71 259v289q0 90 -28 150t-85 60h-41v109z" />
    <glyph glyph-name="asciitilde" unicode="~" horiz-adv-x="1228" 
d="M832 395q-86 0 -228 67q-141 67 -217 66q-106 0 -172 -141l-74 74q86 176 256 176q84 0 238 -67q154 -66 204 -66t90 36t85 105l73 -74q-55 -84 -112 -130t-143 -46z" />
    <glyph glyph-name="uni00A0" unicode="&#xa0;" horiz-adv-x="569" 
 />
    <glyph glyph-name="exclamdown" unicode="&#xa1;" horiz-adv-x="493" 
d="M317 -391h-139v422l31 661h78l30 -661v-422zM162 1057h172v-217h-172v217z" />
    <glyph glyph-name="cent" unicode="&#xa2;" 
d="M240 528q0 -166 82 -296t231 -152v895q-149 -23 -231 -152t-82 -295zM633 -238h-80v209q-207 18 -325 177t-118 381t118 379t325 175v183h80v-179q167 -4 277 -98t128 -264h-129q-53 246 -276 254v-901q111 4 191 90t94 211h129q-25 -184 -136 -294t-278 -116v-207z" />
    <glyph glyph-name="sterling" unicode="&#xa3;" 
d="M94 676v65h129q-113 178 -112 330q0 207 136 315t347 107q211 0 337 -129t122 -356h-129q0 172 -89 274t-243 102t-253 -82q-99 -83 -99 -239q0 -107 69 -223q35 -59 51 -99h328v-65h-291q49 -78 49 -199q0 -201 -225 -373l4 -4q119 62 213 62t200 -42q104 -42 171 -42
q131 0 235 115l66 -99q-141 -125 -299 -125q-90 0 -216 42q-125 42 -213 42t-148 -40q-44 -25 -72 -44l-74 111q106 90 168 179q61 89 61 205t-57 212h-166z" />
    <glyph glyph-name="currency" unicode="&#xa4;" 
d="M63 712q0 178 111 312l-115 115l78 78l115 -115q135 115 314 115t319 -113l112 113l78 -78l-110 -111q115 -141 115 -319t-115 -320l110 -110l-78 -78l-112 112q-131 -113 -311 -113t-322 115l-115 -114l-78 78l117 116q-113 139 -113 317zM193 709q1 -164 111 -277
t268 -113t268 113q111 113 110 277q0 165 -110 277t-269 112q-158 0 -268 -112t-110 -277z" />
    <glyph glyph-name="yen" unicode="&#xa5;" 
d="M225 623v92h217l-430 747h148l407 -747l412 747h141l-432 -747h223v-92h-268l-12 -21v-149h280v-93h-280v-360h-129v360h-277v93h277v149l-13 21h-264z" />
    <glyph glyph-name="brokenbar" unicode="&#xa6;" horiz-adv-x="454" 
d="M174 -182v512h109v-512h-109zM174 842v512h109v-512h-109z" />
    <glyph glyph-name="section" unicode="&#xa7;" 
d="M918 471q0 75 -62 145t-134 112t-180 99t-153 88q-168 -70 -168 -221q1 -72 61 -142t133 -112q73 -43 179 -101t151 -89q173 71 173 221zM1047 480q-1 -104 -63 -180q-62 -75 -161 -114q103 -90 103 -224t-104 -213t-260 -79q-158 0 -260 94q-101 94 -101 269h129
q-4 -106 64 -180t168 -74q101 0 168 46t67 133t-73 157t-176 122q-102 52 -206 109q-104 58 -177 146t-73 192t62 179t161 114q-102 90 -102 224t103 213t261 79q157 0 259 -94t102 -269h-129q4 106 -64 180t-169 74q-102 0 -168 -46t-66 -133t73 -157t176 -121t207 -109
t176 -146q73 -88 73 -192z" />
    <glyph glyph-name="dieresis" unicode="&#xa8;" horiz-adv-x="378" 
d="M440 1249h-139v207h139v-207zM78 1249h-139v207h139v-207z" />
    <glyph glyph-name="copyright" unicode="&#xa9;" horiz-adv-x="1638" 
d="M1581 731q0 -322 -219 -542t-543 -220t-543 220t-219 542t219 542t543 220t543 -220t219 -542zM1462 731q0 273 -184 463t-460 190t-458 -188q-184 -188 -184 -464t183 -466q183 -188 459 -188t460 189q184 190 184 464zM502 731q0 -166 89 -271t249 -106q110 0 182 60
t90 157h105q-17 -145 -123 -227t-256 -82q-205 0 -325 131t-120 338t120 338t325 131q150 0 256 -82t123 -227h-105q-18 95 -91 155t-181 62q-160 0 -249 -106t-89 -271z" />
    <glyph glyph-name="ordfeminine" unicode="&#xaa;" horiz-adv-x="636" 
d="M467 1028v96h-4q-4 -12 -21 -16q-48 -11 -152 -28t-145 -36q-40 -19 -50 -42q-9 -23 -9 -48q0 -51 45 -86t96 -34q98 0 169 53t71 141zM467 1229q0 137 -180 137q-76 0 -125 -36t-51 -107h-97q12 223 280 223t269 -205v-352q4 -47 51 -47q14 0 27 6v-70q-43 -6 -55 -6
q-59 0 -79 27q-19 27 -20 88h-4q-84 -133 -252 -133q-111 0 -177 48t-64 145q0 97 69 153q53 39 154 51q102 12 130 12q79 11 101 22q23 11 23 44z" />
    <glyph glyph-name="guillemotleft" unicode="&#xab;" horiz-adv-x="872" 
d="M725 244l-272 256v127l272 256v-138l-193 -182l193 -182v-137zM395 244l-272 256v127l272 256v-138l-192 -182l192 -182v-137z" />
    <glyph glyph-name="logicalnot" unicode="&#xac;" horiz-adv-x="1228" 
d="M1022 227v439h-922v108h1030v-547h-108z" />
    <glyph glyph-name="uni00AD" unicode="&#xad;" horiz-adv-x="757" 
d="M635 504h-512v119h512v-119z" />
    <glyph glyph-name="registered" unicode="&#xae;" horiz-adv-x="1638" 
d="M819 1493q324 0 543 -220t219 -542t-219 -542t-543 -220t-543 220t-219 542t219 542t543 220zM818 1384q-274 0 -458 -188t-184 -464t183 -466q183 -188 459 -188t460 189t184 463t-184 465q-185 189 -460 189zM651 682v-391h-108v880h338q287 0 286 -243
q0 -205 -221 -246l262 -391h-127l-247 391h-183zM651 774h144q165 0 213 36q49 36 51 118q0 152 -209 151h-199v-305z" />
    <glyph glyph-name="macron" unicode="&#xaf;" horiz-adv-x="378" 
d="M526 1307h-673v92h673v-92z" />
    <glyph glyph-name="degree" unicode="&#xb0;" horiz-adv-x="819" 
d="M115 1150q0 124 86 210t208 86q123 0 209 -87t86 -209t-86 -208t-210 -86t-208 85q-85 85 -85 209zM195 1151q0 -91 62 -153q63 -62 153 -62t152 62t62 152t-62 154q-62 62 -152 62t-153 -62q-62 -63 -62 -153z" />
    <glyph glyph-name="plusminus" unicode="&#xb1;" horiz-adv-x="1228" 
d="M561 662v368h109v-368h460v-109h-460v-369h-109v369h-459v109h459zM100 0v109h1030v-109h-1030z" />
    <glyph glyph-name="twosuperior" unicode="&#xb2;" horiz-adv-x="681" 
d="M145 1133h-96q-4 145 74 229t223 84t227 -66t82 -177t-62 -182t-173 -136q-16 -10 -74 -43t-89 -55q-32 -23 -68 -63t-48 -83h508v-80h-618q2 92 52 166q51 74 113 114t150 95t133 98q80 76 80 159t-61 128q-62 45 -158 45t-146 -66t-49 -167z" />
    <glyph glyph-name="threesuperior" unicode="&#xb3;" horiz-adv-x="681" 
d="M276 979v80h72q74 0 132 39q58 40 58 114t-56 114q-58 40 -150 40t-146 -58t-53 -153h-96q2 131 81 211t212 80t219 -58t86 -169q0 -72 -41 -123t-117 -68v-4q93 -12 143 -68t50 -143q0 -127 -94 -199t-244 -72q-148 0 -237 80q-89 79 -79 222h97q-4 -98 56 -160
q59 -62 161 -61q102 0 173 50t71 133t-64 128q-63 45 -162 45h-72z" />
    <glyph glyph-name="acute" unicode="&#xb4;" horiz-adv-x="378" 
d="M442 1497l-270 -289h-104l215 289h159z" />
    <glyph glyph-name="mu" unicode="&#xb5;" horiz-adv-x="1099" 
d="M979 1057v-1057h-119v190h-4q-49 -104 -147 -162t-229 -58t-228 71v-432h-131v1448h129v-688q4 -147 68 -219t218 -72q152 0 233 124t81 300v555h129z" />
    <glyph glyph-name="paragraph" unicode="&#xb6;" horiz-adv-x="1228" 
d="M559 -362v1034q-178 0 -301 114t-123 292t120 281t337 103h471v-1824h-129v1716h-246v-1716h-129z" />
    <glyph glyph-name="periodcentered" unicode="&#xb7;" horiz-adv-x="569" 
d="M286 768q48 0 84 -37t36 -85t-37 -84t-85 -36t-84 37t-36 85t37 84t85 36z" />
    <glyph glyph-name="cedilla" unicode="&#xb8;" horiz-adv-x="378" 
d="M170 -416q-98 0 -182 43l28 66q70 -29 170 -29t101 88q0 35 -26 57q-26 21 -78 21t-89 -16l-33 30l125 156h72l-90 -111q45 10 102 7q135 -23 136 -136q0 -86 -69 -131t-167 -45z" />
    <glyph glyph-name="onesuperior" unicode="&#xb9;" horiz-adv-x="681" 
d="M72 1196v80q114 3 163 21q50 17 69 49t30 81h82v-866h-97v635h-247z" />
    <glyph glyph-name="ordmasculine" unicode="&#xba;" horiz-adv-x="684" 
d="M338 754q-160 0 -246 98t-86 248t86 248t246 98t250 -97t90 -249t-90 -249t-250 -97zM342 834q113 0 176 80q64 80 64 186t-64 186t-176 80q-113 0 -176 -80q-64 -80 -64 -186t64 -186t176 -80z" />
    <glyph glyph-name="guillemotright" unicode="&#xbb;" horiz-adv-x="872" 
d="M477 244v137l193 182l-193 182v138l273 -256v-127zM147 244v137l193 182l-193 182v138l273 -256v-127z" />
    <glyph glyph-name="onequarter" unicode="&#xbc;" horiz-adv-x="1708" 
d="M272 -70l928 1555h96l-925 -1555h-99zM98 1196v80q115 3 164 21q48 17 68 49t30 81h82v-866h-96v635h-248zM1315 0v205h-430v80l436 581h90v-581h139v-80h-139v-205h-96zM1315 285v442h-4l-332 -442h336z" />
    <glyph glyph-name="onehalf" unicode="&#xbd;" horiz-adv-x="1708" 
d="M272 -70l928 1555h96l-925 -1555h-99zM98 1196v80q115 3 164 21q48 17 68 49t30 81h82v-866h-96v635h-248zM1098 571h-97q-4 145 74 229q77 84 223 85q146 0 228 -66t82 -177t-62 -182t-174 -136q-16 -10 -74 -43t-89 -55t-67 -62t-48 -84h508v-80h-619q2 92 52 166
q51 74 113 114t150 95t134 98q80 76 80 159t-62 128t-158 45t-145 -67t-49 -167z" />
    <glyph glyph-name="threequarters" unicode="&#xbe;" horiz-adv-x="1708" 
d="M276 979v80h72q74 0 132 39q58 40 58 114t-56 114q-58 40 -150 40t-146 -58t-53 -153h-96q2 131 81 211t212 80t219 -58t86 -169q0 -72 -41 -123t-117 -68v-4q93 -12 143 -68t50 -143q0 -127 -94 -199t-244 -72q-148 0 -237 80q-89 79 -79 222h97q-4 -98 56 -160
q59 -62 161 -61q102 0 173 50t71 133t-64 128q-63 45 -162 45h-72zM354 -70l928 1555h96l-925 -1555h-99zM1315 0v205h-430v80l436 581h90v-581h139v-80h-139v-205h-96zM1315 285v442h-4l-332 -442h336z" />
    <glyph glyph-name="questiondown" unicode="&#xbf;" horiz-adv-x="1099" 
d="M991 59q0 -221 -123 -351t-342 -130q-176 0 -296 104t-119 275q0 106 45 185t133 163l63 63q104 101 106 130q1 12 10 48t9 68t2 91h129q2 -95 -7 -157t-46 -120t-70 -92q-33 -35 -112 -109q-133 -125 -133 -255t86 -208t206 -77q162 0 248 104t82 268h129zM629 1057
v-217h-172v217h172z" />
    <glyph glyph-name="Agrave" unicode="&#xc0;" horiz-adv-x="1290" 
d="M629 1593l-271 289h160l215 -289h-104zM-14 0l589 1462h156l574 -1462h-150l-178 455h-666l-176 -455h-149zM647 1323l-293 -750h576z" />
    <glyph glyph-name="Aacute" unicode="&#xc1;" horiz-adv-x="1290" 
d="M950 1886l-270 -289h-105l216 289h159zM-14 0l589 1462h156l574 -1462h-150l-178 455h-666l-176 -455h-149zM647 1323l-293 -750h576z" />
    <glyph glyph-name="Acircumflex" unicode="&#xc2;" horiz-adv-x="1290" 
d="M719 1884l233 -289h-133l-176 209l-180 -209h-119l234 289h141zM-14 0l589 1462h156l574 -1462h-150l-178 455h-666l-176 -455h-149zM647 1323l-293 -750h576z" />
    <glyph glyph-name="Atilde" unicode="&#xc3;" horiz-adv-x="1290" 
d="M801 1649q-67 0 -161 47t-130 47q-78 0 -102 -105h-80q8 78 57 138t119 59q70 0 160 -45t122 -45q78 0 107 98h78q-15 -80 -59 -137t-111 -57zM-14 0l589 1462h156l574 -1462h-150l-178 455h-666l-176 -455h-149zM647 1323l-293 -750h576z" />
    <glyph glyph-name="Adieresis" unicode="&#xc4;" horiz-adv-x="1290" 
d="M899 1638h-139v207h139v-207zM537 1638h-140v207h140v-207zM-14 0l589 1462h156l574 -1462h-150l-178 455h-666l-176 -455h-149zM647 1323l-293 -750h576z" />
    <glyph glyph-name="Aring" unicode="&#xc5;" horiz-adv-x="1290" 
d="M432 1761q0 90 65 155q65 64 155 64t154 -64t64 -155t-64 -155t-155 -64t-155 64t-64 155zM512 1761q0 -59 40 -99t99 -40t100 40q40 40 40 99t-40 99q-39 40 -99 41q-60 -1 -100 -41t-40 -99zM-14 0l589 1462h156l574 -1462h-150l-178 455h-666l-176 -455h-149z
M647 1323l-293 -750h576z" />
    <glyph glyph-name="AE" unicode="&#xc6;" horiz-adv-x="1857" 
d="M1051 696v-577h759v-119h-899v463h-530l-238 -463h-157l766 1462h1050v-119h-751v-528h704v-119h-704zM911 582v761h-82l-387 -761h469z" />
    <glyph glyph-name="Ccedilla" unicode="&#xc7;" horiz-adv-x="1441" 
d="M780 1374q-152 0 -260 -55q-198 -100 -270 -351q-33 -112 -33 -237q0 -253 130 -440q65 -91 173 -147t248 -56q197 0 323 133t146 336h139q-28 -272 -190 -430t-418 -158h-2l-66 -80q45 10 103 7q135 -23 135 -136q0 -86 -69 -131t-167 -45t-182 43l29 66q71 -29 171 -29
t99 88q0 35 -25 57q-26 21 -78 21t-89 -16l-33 30l102 129q-125 8 -231 58q-188 92 -288 279q-99 187 -99 421q0 311 171 531q83 106 217 168t302 63q221 0 390 -127t198 -346h-139q-37 166 -161 260t-276 94z" />
    <glyph glyph-name="Egrave" unicode="&#xc8;" horiz-adv-x="1214" 
d="M647 1593l-270 289h160l215 -289h-105zM147 0v1462h1010v-119h-870v-528h815v-119h-815v-577h880v-119h-1020z" />
    <glyph glyph-name="Eacute" unicode="&#xc9;" horiz-adv-x="1214" 
d="M948 1886l-270 -289h-105l215 289h160zM147 0v1462h1010v-119h-870v-528h815v-119h-815v-577h880v-119h-1020z" />
    <glyph glyph-name="Ecircumflex" unicode="&#xca;" horiz-adv-x="1214" 
d="M727 1884l234 -289h-134l-176 209l-180 -209h-119l234 289h141zM147 0v1462h1010v-119h-870v-528h815v-119h-815v-577h880v-119h-1020z" />
    <glyph glyph-name="Edieresis" unicode="&#xcb;" horiz-adv-x="1214" 
d="M901 1638h-139v207h139v-207zM539 1638h-140v207h140v-207zM147 0v1462h1010v-119h-870v-528h815v-119h-815v-577h880v-119h-1020z" />
    <glyph glyph-name="Igrave" unicode="&#xcc;" horiz-adv-x="454" 
d="M193 1593l-271 289h160l215 -289h-104zM158 0v1462h139v-1462h-139z" />
    <glyph glyph-name="Iacute" unicode="&#xcd;" horiz-adv-x="454" 
d="M532 1886l-270 -289h-104l215 289h159zM158 0v1462h139v-1462h-139z" />
    <glyph glyph-name="Icircumflex" unicode="&#xce;" horiz-adv-x="454" 
d="M299 1884l233 -289h-133l-176 209l-180 -209h-119l234 289h141zM158 0v1462h139v-1462h-139z" />
    <glyph glyph-name="Idieresis" unicode="&#xcf;" horiz-adv-x="454" 
d="M479 1638h-139v207h139v-207zM117 1638h-140v207h140v-207zM158 0v1462h139v-1462h-139z" />
    <glyph glyph-name="Eth" unicode="&#xd0;" horiz-adv-x="1402" 
d="M287 1343v-538h483v-92h-483v-594h297q317 0 459 143t143 469q0 326 -142 469t-460 143h-297zM147 805v657h506q672 -16 672 -731t-672 -731h-506v713h-147v92h147z" />
    <glyph glyph-name="Ntilde" unicode="&#xd1;" horiz-adv-x="1441" 
d="M887 1649q-67 0 -161 47t-130 47q-78 0 -102 -105h-80q8 78 57 138t119 59q70 0 160 -45t122 -45q78 0 107 98h78q-15 -80 -59 -137t-111 -57zM145 0v1462h156l852 -1237h4v1237h139v-1462h-155l-852 1237h-4v-1237h-140z" />
    <glyph glyph-name="Ograve" unicode="&#xd2;" horiz-adv-x="1517" 
d="M760 1593l-271 289h160l215 -289h-104zM760 1493q221 0 380 -109q160 -110 234 -278t74 -375t-75 -376t-233 -277t-380 -109q-168 1 -302 63t-217 168q-171 219 -171 531q0 311 171 531q83 106 217 168t302 63zM209 731q0 -253 130 -440q65 -91 173 -147t248 -56
q139 0 248 55t172 147q129 189 129 442q0 252 -129 439q-63 91 -172 147t-248 56t-248 -55q-198 -100 -270 -351q-33 -112 -33 -237z" />
    <glyph glyph-name="Oacute" unicode="&#xd3;" horiz-adv-x="1517" 
d="M1081 1886l-270 -289h-104l215 289h159zM760 1493q221 0 380 -109q160 -110 234 -278t74 -375t-75 -376t-233 -277t-380 -109q-168 1 -302 63t-217 168q-171 219 -171 531q0 311 171 531q83 106 217 168t302 63zM209 731q0 -253 130 -440q65 -91 173 -147t248 -56
q139 0 248 55t172 147q129 189 129 442q0 252 -129 439q-63 91 -172 147t-248 56t-248 -55q-198 -100 -270 -351q-33 -112 -33 -237z" />
    <glyph glyph-name="Ocircumflex" unicode="&#xd4;" horiz-adv-x="1517" 
d="M834 1884l233 -289h-133l-176 209l-180 -209h-119l233 289h142zM760 1493q221 0 380 -109q160 -110 234 -278t74 -375t-75 -376t-233 -277t-380 -109q-168 1 -302 63t-217 168q-171 219 -171 531q0 311 171 531q83 106 217 168t302 63zM209 731q0 -253 130 -440
q65 -91 173 -147t248 -56q139 0 248 55t172 147q129 189 129 442q0 252 -129 439q-63 91 -172 147t-248 56t-248 -55q-198 -100 -270 -351q-33 -112 -33 -237z" />
    <glyph glyph-name="Otilde" unicode="&#xd5;" horiz-adv-x="1517" 
d="M912 1649q-68 0 -160 47t-129 47q-78 0 -103 -105h-80q8 78 58 138t118 59q70 0 160 -45t123 -45q78 0 107 98h77q-14 -80 -58 -137q-45 -57 -113 -57zM760 1493q221 0 380 -109q160 -110 234 -278t74 -375t-75 -376t-233 -277t-380 -109q-168 1 -302 63t-217 168
q-171 219 -171 531q0 311 171 531q83 106 217 168t302 63zM209 731q0 -253 130 -440q65 -91 173 -147t248 -56q139 0 248 55t172 147q129 189 129 442q0 252 -129 439q-63 91 -172 147t-248 56t-248 -55q-198 -100 -270 -351q-33 -112 -33 -237z" />
    <glyph glyph-name="Odieresis" unicode="&#xd6;" horiz-adv-x="1517" 
d="M1006 1638h-140v207h140v-207zM643 1638h-139v207h139v-207zM760 1493q221 0 380 -109q160 -110 234 -278t74 -375t-75 -376t-233 -277t-380 -109q-168 1 -302 63t-217 168q-171 219 -171 531q0 311 171 531q83 106 217 168t302 63zM209 731q0 -253 130 -440
q65 -91 173 -147t248 -56q139 0 248 55t172 147q129 189 129 442q0 252 -129 439q-63 91 -172 147t-248 56t-248 -55q-198 -100 -270 -351q-33 -112 -33 -237z" />
    <glyph glyph-name="multiply" unicode="&#xd7;" horiz-adv-x="1228" 
d="M537 514l-385 387l75 76l387 -387l387 387l76 -76l-387 -387l387 -387l-76 -76l-387 385l-387 -385l-75 76z" />
    <glyph glyph-name="Oslash" unicode="&#xd8;" horiz-adv-x="1517" 
d="M760 88q139 0 248 55t172 147q129 189 129 444t-121 423l-813 -907q145 -162 385 -162zM760 1374q-139 0 -248 -55q-198 -100 -270 -351q-33 -112 -33 -237q0 -254 119 -424l815 907q-145 160 -383 160zM1448 731q0 -207 -75 -376t-233 -277t-380 -109q-291 0 -473 183
l-156 -177l-55 52l162 180q-168 207 -168 521t171 534q83 106 217 168t302 63q287 0 471 -180l145 160l54 -48l-150 -165q168 -205 168 -529z" />
    <glyph glyph-name="Ugrave" unicode="&#xd9;" horiz-adv-x="1402" 
d="M709 1593l-271 289h160l215 -289h-104zM133 526v936h139v-905q0 -245 109 -357t319 -112t321 112q110 112 109 357v905h140v-936q0 -246 -140 -402t-429 -155q-288 1 -428 157t-140 400z" />
    <glyph glyph-name="Uacute" unicode="&#xda;" horiz-adv-x="1402" 
d="M1018 1886l-270 -289h-105l215 289h160zM133 526v936h139v-905q0 -245 109 -357t319 -112t321 112q110 112 109 357v905h140v-936q0 -246 -140 -402t-429 -155q-288 1 -428 157t-140 400z" />
    <glyph glyph-name="Ucircumflex" unicode="&#xdb;" horiz-adv-x="1402" 
d="M772 1884l234 -289h-134l-176 209l-180 -209h-119l234 289h141zM133 526v936h139v-905q0 -245 109 -357t319 -112t321 112q110 112 109 357v905h140v-936q0 -246 -140 -402t-429 -155q-288 1 -428 157t-140 400z" />
    <glyph glyph-name="Udieresis" unicode="&#xdc;" horiz-adv-x="1402" 
d="M952 1638h-139v207h139v-207zM590 1638h-139v207h139v-207zM133 526v936h139v-905q0 -245 109 -357t319 -112t321 112q110 112 109 357v905h140v-936q0 -246 -140 -402t-429 -155q-288 1 -428 157t-140 400z" />
    <glyph glyph-name="Yacute" unicode="&#xdd;" horiz-adv-x="1251" 
d="M944 1886l-270 -289h-105l215 289h160zM555 0v602l-575 860h165l482 -741l479 741h166l-578 -860v-602h-139z" />
    <glyph glyph-name="Thorn" unicode="&#xde;" horiz-adv-x="1290" 
d="M147 0v1462h140v-239h510q199 0 317 -111q118 -112 117 -308q0 -196 -118 -306t-316 -111h-510v-387h-140zM287 1104v-598h479q152 0 239 76t87 223t-87 223t-239 76h-479z" />
    <glyph glyph-name="germandbls" unicode="&#xdf;" horiz-adv-x="1099" 
d="M125 0v1096q0 197 109 297q110 100 290 100t295 -96t115 -264q0 -113 -62 -198t-170 -110v-4q142 -12 224 -122t82 -257q0 -217 -126 -336t-329 -122h-51q-14 0 -51 4v112q43 -8 96 -8q139 0 235 81t97 247q0 207 -121 274q-61 35 -132 47t-175 13v108q354 0 354 266
q0 113 -79 185q-79 71 -210 71q-264 -1 -262 -299v-1085h-129z" />
    <glyph glyph-name="agrave" unicode="&#xe0;" horiz-adv-x="1062" 
d="M528 1204l-270 289h160l215 -289h-105zM799 410v168h-4q-16 -31 -109 -48q-35 -6 -111 -17q-237 -34 -304 -81q-29 -20 -53 -58t-23 -87q0 -94 69 -152q70 -57 166 -57q156 0 262 91t107 241zM539 1087q389 0 389 -339v-562q0 -78 76 -77q23 0 40 8v-109q-41 -8 -83 -8
q-90 0 -121 46t-31 138h-4q-76 -113 -159 -164q-82 -51 -232 -51t-249 78t-99 232q0 102 54 181q36 53 129 89q92 36 384 69q90 8 128 36t38 108q0 121 -74 169t-202 48t-204 -60q-75 -61 -79 -186h-129q10 180 123 267q114 87 305 87z" />
    <glyph glyph-name="aacute" unicode="&#xe1;" horiz-adv-x="1062" 
d="M840 1497l-271 -289h-104l215 289h160zM799 410v168h-4q-16 -31 -109 -48q-35 -6 -111 -17q-237 -34 -304 -81q-29 -20 -53 -58t-23 -87q0 -94 69 -152q70 -57 166 -57q156 0 262 91t107 241zM539 1087q389 0 389 -339v-562q0 -78 76 -77q23 0 40 8v-109q-41 -8 -83 -8
q-90 0 -121 46t-31 138h-4q-76 -113 -159 -164q-82 -51 -232 -51t-249 78t-99 232q0 102 54 181q36 53 129 89q92 36 384 69q90 8 128 36t38 108q0 121 -74 169t-202 48t-204 -60q-75 -61 -79 -186h-129q10 180 123 267q114 87 305 87z" />
    <glyph glyph-name="acircumflex" unicode="&#xe2;" horiz-adv-x="1062" 
d="M602 1495l234 -289h-134l-176 209l-180 -209h-119l234 289h141zM799 410v168h-4q-16 -31 -109 -48q-35 -6 -111 -17q-237 -34 -304 -81q-29 -20 -53 -58t-23 -87q0 -94 69 -152q70 -57 166 -57q156 0 262 91t107 241zM539 1087q389 0 389 -339v-562q0 -78 76 -77
q23 0 40 8v-109q-41 -8 -83 -8q-90 0 -121 46t-31 138h-4q-76 -113 -159 -164q-82 -51 -232 -51t-249 78t-99 232q0 102 54 181q36 53 129 89q92 36 384 69q90 8 128 36t38 108q0 121 -74 169t-202 48t-204 -60q-75 -61 -79 -186h-129q10 180 123 267q114 87 305 87z" />
    <glyph glyph-name="atilde" unicode="&#xe3;" horiz-adv-x="1062" 
d="M680 1260q-68 0 -162 47q-92 47 -129 47q-78 0 -102 -105h-80q8 78 57 137q90 108 279 15q90 -45 123 -45q77 0 106 98h78q-14 -80 -58 -137t-112 -57zM799 410v168h-4q-16 -31 -109 -48q-35 -6 -111 -17q-237 -34 -304 -81q-29 -20 -53 -58t-23 -87q0 -94 69 -152
q70 -57 166 -57q156 0 262 91t107 241zM539 1087q389 0 389 -339v-562q0 -78 76 -77q23 0 40 8v-109q-41 -8 -83 -8q-90 0 -121 46t-31 138h-4q-76 -113 -159 -164q-82 -51 -232 -51t-249 78t-99 232q0 102 54 181q36 53 129 89q92 36 384 69q90 8 128 36t38 108
q0 121 -74 169t-202 48t-204 -60q-75 -61 -79 -186h-129q10 180 123 267q114 87 305 87z" />
    <glyph glyph-name="adieresis" unicode="&#xe4;" horiz-adv-x="1062" 
d="M780 1249h-139v207h139v-207zM418 1249h-139v207h139v-207zM799 410v168h-4q-16 -31 -109 -48q-35 -6 -111 -17q-237 -34 -304 -81q-29 -20 -53 -58t-23 -87q0 -94 69 -152q70 -57 166 -57q156 0 262 91t107 241zM539 1087q389 0 389 -339v-562q0 -78 76 -77q23 0 40 8
v-109q-41 -8 -83 -8q-90 0 -121 46t-31 138h-4q-76 -113 -159 -164q-82 -51 -232 -51t-249 78t-99 232q0 102 54 181q36 53 129 89q92 36 384 69q90 8 128 36t38 108q0 121 -74 169t-202 48t-204 -60q-75 -61 -79 -186h-129q10 180 123 267q114 87 305 87z" />
    <glyph glyph-name="aring" unicode="&#xe5;" horiz-adv-x="1062" 
d="M307 1393q0 91 65 155q64 64 154 64t155 -65t65 -155t-66 -154q-64 -64 -154 -64t-154 64t-65 155zM387 1393q0 -59 40 -99t99 -41q59 0 100 40q40 39 40 99t-40 100t-100 40t-99 -40q-40 -40 -40 -99zM799 410v168h-4q-16 -31 -109 -48q-35 -6 -111 -17
q-237 -34 -304 -81q-29 -20 -53 -58t-23 -87q0 -94 69 -152q70 -57 166 -57q156 0 262 91t107 241zM539 1087q389 0 389 -339v-562q0 -78 76 -77q23 0 40 8v-109q-41 -8 -83 -8q-90 0 -121 46t-31 138h-4q-76 -113 -159 -164q-82 -51 -232 -51t-249 78t-99 232q0 102 54 181
q36 53 129 89q92 36 384 69q90 8 128 36t38 108q0 121 -74 169t-202 48t-204 -60q-75 -61 -79 -186h-129q10 180 123 267q114 87 305 87z" />
    <glyph glyph-name="ae" unicode="&#xe6;" horiz-adv-x="1781" 
d="M1593 602q0 152 -93 264q-94 112 -244 113q-150 -1 -241 -111t-87 -266h665zM799 410v168h-4q-16 -31 -109 -48q-35 -6 -111 -17q-237 -34 -304 -81q-29 -20 -53 -58t-23 -87q0 -94 69 -152q70 -57 166 -57q156 0 262 91t107 241zM1722 494h-794q-12 -178 78 -297
t266 -119q252 0 313 264h129q-41 -180 -160 -276t-301 -97q-293 0 -387 267h-4q-16 -84 -88 -146q-139 -121 -354 -121q-156 0 -255 78t-99 232q0 102 54 181q36 53 129 89q92 36 384 69q90 8 128 36t38 108q0 121 -74 169t-202 48t-204 -60t-79 -186h-129q10 180 123 267
q114 87 305 87q319 0 352 -219h4q39 104 144 162t229 57q344 0 431 -369q23 -101 23 -224z" />
    <glyph glyph-name="ccedilla" unicode="&#xe7;" horiz-adv-x="1062" 
d="M569 979q-174 0 -272 -134q-98 -135 -98 -317t98 -316t272 -134q119 0 207 86t101 215h129q-29 -195 -144 -301t-282 -109l-66 -80q45 10 102 7q135 -23 136 -136q0 -86 -69 -131t-167 -45t-182 43l28 66q70 -29 170 -29t101 88q0 35 -26 57q-26 21 -78 21t-89 -16
l-32 30l102 129q-248 28 -367 244q-74 135 -73 311q0 238 133 399t366 160q177 0 291 -92t137 -270h-129q-55 254 -299 254z" />
    <glyph glyph-name="egrave" unicode="&#xe8;" horiz-adv-x="1062" 
d="M543 1204l-271 289h160l215 -289h-104zM199 494q0 -162 89 -289t259 -127q264 0 332 270h129q-88 -379 -461 -379q-238 0 -358 158t-119 401q0 321 205 476q112 84 273 84q160 0 270 -89q207 -166 194 -505h-813zM546 979q-148 1 -239 -109q-90 -110 -108 -268h684
q-5 154 -97 266t-240 111z" />
    <glyph glyph-name="eacute" unicode="&#xe9;" horiz-adv-x="1062" 
d="M854 1497l-270 -289h-105l215 289h160zM199 494q0 -162 89 -289t259 -127q264 0 332 270h129q-88 -379 -461 -379q-238 0 -358 158t-119 401q0 321 205 476q112 84 273 84q160 0 270 -89q207 -166 194 -505h-813zM546 979q-148 1 -239 -109q-90 -110 -108 -268h684
q-5 154 -97 266t-240 111z" />
    <glyph glyph-name="ecircumflex" unicode="&#xea;" horiz-adv-x="1062" 
d="M621 1495l233 -289h-133l-176 209l-180 -209h-119l233 289h142zM199 494q0 -162 89 -289t259 -127q264 0 332 270h129q-88 -379 -461 -379q-238 0 -358 158t-119 401q0 321 205 476q112 84 273 84q160 0 270 -89q207 -166 194 -505h-813zM546 979q-148 1 -239 -109
q-90 -110 -108 -268h684q-5 154 -97 266t-240 111z" />
    <glyph glyph-name="edieresis" unicode="&#xeb;" horiz-adv-x="1062" 
d="M801 1249h-139v207h139v-207zM438 1249h-139v207h139v-207zM199 494q0 -162 89 -289t259 -127q264 0 332 270h129q-88 -379 -461 -379q-238 0 -358 158t-119 401q0 321 205 476q112 84 273 84q160 0 270 -89q207 -166 194 -505h-813zM546 979q-148 1 -239 -109
q-90 -110 -108 -268h684q-5 154 -97 266t-240 111z" />
    <glyph glyph-name="igrave" unicode="&#xec;" horiz-adv-x="378" 
d="M152 1204l-271 289h160l215 -289h-104zM254 0h-129v1057h129v-1057z" />
    <glyph glyph-name="iacute" unicode="&#xed;" horiz-adv-x="378" 
d="M496 1497l-271 -289h-104l215 289h160zM254 0h-129v1057h129v-1057z" />
    <glyph glyph-name="icircumflex" unicode="&#xee;" horiz-adv-x="378" 
d="M262 1495l234 -289h-134l-176 209l-180 -209h-119l234 289h141zM254 0h-129v1057h129v-1057z" />
    <glyph glyph-name="idieresis" unicode="&#xef;" horiz-adv-x="378" 
d="M442 1249h-139v207h139v-207zM80 1249h-139v207h139v-207zM254 0h-129v1057h129v-1057z" />
    <glyph glyph-name="eth" unicode="&#xf0;" 
d="M563 928q-184 0 -274 -118t-90 -301t91 -307t269 -124t274 119q95 119 95 303t-90 306q-91 122 -275 122zM559 -31q-241 0 -365 151t-124 382t130 383q130 151 341 151t286 -82h4q-94 178 -272 322l-215 -121l-68 66l205 114q-121 78 -190 113l74 72q141 -76 213 -131
l233 131l68 -66l-224 -125q401 -326 402 -801q0 -244 -128 -402t-370 -157z" />
    <glyph glyph-name="ntilde" unicode="&#xf1;" horiz-adv-x="1099" 
d="M700 1260q-68 0 -161 47q-92 47 -129 47q-78 0 -103 -105h-80q7 78 57 137q50 60 120 60t159 -45q90 -45 123 -45q78 0 107 98h77q-14 -80 -58 -137t-112 -57zM121 0v1057h129v-183h4q37 94 131 154t207 59q213 0 300 -103t87 -304v-680h-129v659q0 319 -268 320
q-152 0 -240 -101t-92 -262v-616h-129z" />
    <glyph glyph-name="ograve" unicode="&#xf2;" 
d="M569 1204l-270 289h160l215 -289h-105zM569 1087q233 0 367 -160q133 -161 133 -399t-133 -398q-132 -160 -366 -161q-234 0 -367 161q-133 160 -133 398t133 398t366 161zM569 979q-174 0 -272 -134q-98 -135 -98 -317t98 -316t272 -134t273 134q98 134 98 316t-98 317
q-99 134 -273 134z" />
    <glyph glyph-name="oacute" unicode="&#xf3;" 
d="M883 1497l-271 -289h-104l215 289h160zM569 1087q233 0 367 -160q133 -161 133 -399t-133 -398q-132 -160 -366 -161q-234 0 -367 161q-133 160 -133 398t133 398t366 161zM569 979q-174 0 -272 -134q-98 -135 -98 -317t98 -316t272 -134t273 134q98 134 98 316t-98 317
q-99 134 -273 134z" />
    <glyph glyph-name="ocircumflex" unicode="&#xf4;" 
d="M643 1495l234 -289h-134l-176 209l-180 -209h-119l234 289h141zM569 1087q233 0 367 -160q133 -161 133 -399t-133 -398q-132 -160 -366 -161q-234 0 -367 161q-133 160 -133 398t133 398t366 161zM569 979q-174 0 -272 -134q-98 -135 -98 -317t98 -316t272 -134t273 134
q98 134 98 316t-98 317q-99 134 -273 134z" />
    <glyph glyph-name="otilde" unicode="&#xf5;" 
d="M724 1260q-68 0 -162 47t-128 47q-78 0 -102 -105h-80q8 78 57 137q90 108 279 15q90 -45 123 -45q77 0 106 98h78q-14 -80 -58 -137q-45 -57 -113 -57zM569 1087q233 0 367 -160q133 -161 133 -399t-133 -398q-132 -160 -366 -161q-234 0 -367 161q-133 160 -133 398
t133 398t366 161zM569 979q-174 0 -272 -134q-98 -135 -98 -317t98 -316t272 -134t273 134q98 134 98 316t-98 317q-99 134 -273 134z" />
    <glyph glyph-name="odieresis" unicode="&#xf6;" 
d="M823 1249h-139v207h139v-207zM461 1249h-139v207h139v-207zM569 1087q233 0 367 -160q133 -161 133 -399t-133 -398q-132 -160 -366 -161q-234 0 -367 161q-133 160 -133 398t133 398t366 161zM569 979q-174 0 -272 -134q-98 -135 -98 -317t98 -316t272 -134t273 134
q98 134 98 316t-98 317q-99 134 -273 134z" />
    <glyph glyph-name="divide" unicode="&#xf7;" horiz-adv-x="1228" 
d="M1130 461h-1030v108h1030v-108zM500 928q0 47 34 81q34 33 80 33t81 -34q34 -34 34 -78q0 -45 -35 -81t-80 -36q-46 0 -80 34t-34 81zM500 102q0 47 34 81t80 34t81 -34q34 -34 34 -79q0 -44 -35 -80t-80 -36q-46 0 -80 34t-34 80z" />
    <glyph glyph-name="oslash" unicode="&#xf8;" 
d="M564 979q-169 0 -267 -134q-99 -134 -99 -304t74 -289l559 604q-98 123 -267 123zM574 78q169 0 268 134q98 134 98 304t-72 287l-559 -604q96 -121 265 -121zM1069 518q0 -228 -133 -388q-134 -160 -358 -161q-224 0 -353 140l-121 -132l-45 41l125 138
q-114 150 -114 380t133 391t359 161t356 -140l106 115l45 -41l-111 -121q111 -155 111 -383z" />
    <glyph glyph-name="ugrave" unicode="&#xf9;" horiz-adv-x="1099" 
d="M561 1204l-270 289h160l215 -289h-105zM979 1057v-1057h-119v190h-4q-49 -104 -147 -162t-217 -59q-371 0 -371 402v686h129v-688q4 -147 68 -219t218 -72q152 0 233 124t81 300v555h129z" />
    <glyph glyph-name="uacute" unicode="&#xfa;" horiz-adv-x="1099" 
d="M864 1497l-270 -289h-105l216 289h159zM979 1057v-1057h-119v190h-4q-49 -104 -147 -162t-217 -59q-371 0 -371 402v686h129v-688q4 -147 68 -219t218 -72q152 0 233 124t81 300v555h129z" />
    <glyph glyph-name="ucircumflex" unicode="&#xfb;" horiz-adv-x="1099" 
d="M621 1495l233 -289h-133l-176 209l-180 -209h-119l233 289h142zM979 1057v-1057h-119v190h-4q-49 -104 -147 -162t-217 -59q-371 0 -371 402v686h129v-688q4 -147 68 -219t218 -72q152 0 233 124t81 300v555h129z" />
    <glyph glyph-name="udieresis" unicode="&#xfc;" horiz-adv-x="1099" 
d="M801 1249h-139v207h139v-207zM438 1249h-139v207h139v-207zM979 1057v-1057h-119v190h-4q-49 -104 -147 -162t-217 -59q-371 0 -371 402v686h129v-688q4 -147 68 -219t218 -72q152 0 233 124t81 300v555h129z" />
    <glyph glyph-name="yacute" unicode="&#xfd;" horiz-adv-x="948" 
d="M807 1497l-270 -289h-105l215 289h160zM426 4l-422 1053h137l348 -901l326 901h129l-459 -1219q-59 -139 -110 -184t-168 -45q-78 4 -98 10v109q105 -21 157 0q47 16 82 86q10 20 33 69z" />
    <glyph glyph-name="thorn" unicode="&#xfe;" horiz-adv-x="1175" 
d="M969 528q0 117 -34 215t-115 167t-197 69q-187 0 -279 -132q-92 -133 -92 -319t91 -318t280 -132q117 0 197 68t115 167q34 98 34 215zM123 -391v1853h129v-606h4q39 109 141 170t226 61q229 1 352 -159t123 -400t-123 -400t-352 -159q-123 1 -225 61t-142 171h-4v-592
h-129z" />
    <glyph glyph-name="ydieresis" unicode="&#xff;" horiz-adv-x="948" 
d="M741 1249h-139v207h139v-207zM379 1249h-139v207h139v-207zM426 4l-422 1053h137l348 -901l326 901h129l-459 -1219q-59 -139 -110 -184t-168 -45q-78 4 -98 10v109q105 -21 157 0q47 16 82 86q10 20 33 69z" />
    <glyph glyph-name="Amacron" unicode="&#x100;" horiz-adv-x="1290" 
d="M983 1696h-674v92h674v-92zM-14 0l589 1462h156l574 -1462h-150l-178 455h-666l-176 -455h-149zM647 1323l-293 -750h576z" />
    <glyph glyph-name="amacron" unicode="&#x101;" horiz-adv-x="1062" 
d="M877 1307h-674v92h674v-92zM799 410v168h-4q-16 -31 -109 -48q-35 -6 -111 -17q-237 -34 -304 -81q-29 -20 -53 -58t-23 -87q0 -94 69 -152q70 -57 166 -57q156 0 262 91t107 241zM539 1087q389 0 389 -339v-562q0 -78 76 -77q23 0 40 8v-109q-41 -8 -83 -8
q-90 0 -121 46t-31 138h-4q-76 -113 -159 -164q-82 -51 -232 -51t-249 78t-99 232q0 102 54 181q36 53 129 89q92 36 384 69q90 8 128 36t38 108q0 121 -74 169t-202 48t-204 -60q-75 -61 -79 -186h-129q10 180 123 267q114 87 305 87z" />
    <glyph glyph-name="Abreve" unicode="&#x102;" horiz-adv-x="1290" 
d="M649 1704q82 0 144 45q61 45 73 123h80q-16 -121 -95 -191q-79 -69 -203 -69t-202 68t-88 192h80q4 -78 66 -123t145 -45zM-14 0l589 1462h156l574 -1462h-150l-178 455h-666l-176 -455h-149zM647 1323l-293 -750h576z" />
    <glyph glyph-name="abreve" unicode="&#x103;" horiz-adv-x="1062" 
d="M532 1315q82 0 144 45q61 45 74 123h79q-16 -121 -95 -191t-203 -70q-123 0 -201 70q-78 68 -88 191h80q4 -78 66 -123t144 -45zM799 410v168h-4q-16 -31 -109 -48q-35 -6 -111 -17q-237 -34 -304 -81q-29 -20 -53 -58t-23 -87q0 -94 69 -152q70 -57 166 -57
q156 0 262 91t107 241zM539 1087q389 0 389 -339v-562q0 -78 76 -77q23 0 40 8v-109q-41 -8 -83 -8q-90 0 -121 46t-31 138h-4q-76 -113 -159 -164q-82 -51 -232 -51t-249 78t-99 232q0 102 54 181q36 53 129 89q92 36 384 69q90 8 128 36t38 108q0 121 -74 169t-202 48
t-204 -60q-75 -61 -79 -186h-129q10 180 123 267q114 87 305 87z" />
    <glyph glyph-name="Aogonek" unicode="&#x104;" horiz-adv-x="1290" 
d="M647 1323l-293 -750h576zM1065 -236q0 -50 26 -76q26 -24 64 -24q70 0 113 84l59 -27q-61 -137 -201 -137q-88 0 -137 46t-49 122q0 117 215 248l-178 455h-666l-176 -455h-149l589 1462h156l574 -1462h-72q-106 -88 -137 -137t-31 -99z" />
    <glyph glyph-name="aogonek" unicode="&#x105;" horiz-adv-x="1062" 
d="M799 410v168h-4q-16 -31 -109 -48q-35 -6 -111 -17q-237 -34 -304 -81q-29 -20 -53 -58t-23 -87q0 -94 69 -152q70 -57 166 -57q156 0 262 91t107 241zM809 184h-4q-76 -113 -159 -164q-82 -51 -232 -51t-249 78t-99 232q0 102 54 181q36 53 129 89q92 36 384 69
q90 8 128 36t38 108q0 121 -74 169t-202 48t-204 -60q-75 -61 -79 -186h-129q10 180 123 267q114 87 305 87q389 0 389 -339v-562q0 -78 76 -77q23 0 40 8v-109q-41 -8 -83 -8h-9q-106 -88 -137 -137t-31 -99t26 -76q26 -24 64 -24q70 0 113 84l60 -27q-61 -137 -201 -137
q-88 0 -137 46t-50 122q0 118 228 258q-2 2 -6 2q-72 37 -72 172z" />
    <glyph glyph-name="Cacute" unicode="&#x106;" horiz-adv-x="1441" 
d="M1077 1886l-270 -289h-105l216 289h159zM780 1374q-152 0 -260 -55q-198 -100 -270 -351q-33 -112 -33 -237q0 -253 130 -440q65 -91 173 -147t248 -56q197 0 323 133t146 336h139q-28 -272 -190 -430t-418 -158q-168 1 -302 63t-217 168q-171 219 -171 531
q0 311 171 531q83 106 217 168t302 63q221 0 390 -127t198 -346h-139q-37 166 -161 260t-276 94z" />
    <glyph glyph-name="cacute" unicode="&#x107;" horiz-adv-x="1062" 
d="M879 1497l-271 -289h-104l215 289h160zM569 979q-174 0 -272 -134q-98 -135 -98 -317t98 -316t272 -134q119 0 207 86t101 215h129q-27 -193 -143 -301t-294 -109q-233 0 -366 161q-133 160 -133 398t133 399t366 160q177 0 291 -92t137 -270h-129q-55 254 -299 254z" />
    <glyph glyph-name="Ccircumflex" unicode="&#x108;" horiz-adv-x="1441" 
d="M838 1884l233 -289h-133l-176 209l-180 -209h-119l233 289h142zM780 1374q-152 0 -260 -55q-198 -100 -270 -351q-33 -112 -33 -237q0 -253 130 -440q65 -91 173 -147t248 -56q197 0 323 133t146 336h139q-28 -272 -190 -430t-418 -158q-168 1 -302 63t-217 168
q-171 219 -171 531q0 311 171 531q83 106 217 168t302 63q221 0 390 -127t198 -346h-139q-37 166 -161 260t-276 94z" />
    <glyph glyph-name="ccircumflex" unicode="&#x109;" horiz-adv-x="1062" 
d="M639 1495l233 -289h-133l-176 209l-180 -209h-119l234 289h141zM569 979q-174 0 -272 -134q-98 -135 -98 -317t98 -316t272 -134q119 0 207 86t101 215h129q-27 -193 -143 -301t-294 -109q-233 0 -366 161q-133 160 -133 398t133 399t366 160q177 0 291 -92t137 -270
h-129q-55 254 -299 254z" />
    <glyph glyph-name="Cdotaccent" unicode="&#x10a;" horiz-adv-x="1441" 
d="M829 1638h-139v207h139v-207zM780 1374q-152 0 -260 -55q-198 -100 -270 -351q-33 -112 -33 -237q0 -253 130 -440q65 -91 173 -147t248 -56q197 0 323 133t146 336h139q-28 -272 -190 -430t-418 -158q-168 1 -302 63t-217 168q-171 219 -171 531q0 311 171 531
q83 106 217 168t302 63q221 0 390 -127t198 -346h-139q-37 166 -161 260t-276 94z" />
    <glyph glyph-name="cdotaccent" unicode="&#x10b;" horiz-adv-x="1062" 
d="M635 1249h-139v207h139v-207zM569 979q-174 0 -272 -134q-98 -135 -98 -317t98 -316t272 -134q119 0 207 86t101 215h129q-27 -193 -143 -301t-294 -109q-233 0 -366 161q-133 160 -133 398t133 399t366 160q177 0 291 -92t137 -270h-129q-55 254 -299 254z" />
    <glyph glyph-name="Ccaron" unicode="&#x10c;" horiz-adv-x="1441" 
d="M684 1597l-233 289h133l176 -209l180 209h119l-234 -289h-141zM780 1374q-152 0 -260 -55q-198 -100 -270 -351q-33 -112 -33 -237q0 -253 130 -440q65 -91 173 -147t248 -56q197 0 323 133t146 336h139q-28 -272 -190 -430t-418 -158q-168 1 -302 63t-217 168
q-171 219 -171 531q0 311 171 531q83 106 217 168t302 63q221 0 390 -127t198 -346h-139q-37 166 -161 260t-276 94z" />
    <glyph glyph-name="ccaron" unicode="&#x10d;" horiz-adv-x="1062" 
d="M496 1208l-234 289h133l176 -209l181 209h118l-233 -289h-141zM569 979q-174 0 -272 -134q-98 -135 -98 -317t98 -316t272 -134q119 0 207 86t101 215h129q-27 -193 -143 -301t-294 -109q-233 0 -366 161q-133 160 -133 398t133 399t366 160q177 0 291 -92t137 -270h-129
q-55 254 -299 254z" />
    <glyph glyph-name="Dcaron" unicode="&#x10e;" horiz-adv-x="1402" 
d="M553 1597l-234 289h134l176 -209l180 209h119l-234 -289h-141zM287 1343v-1224h297q317 0 459 143t143 469q0 326 -142 469t-460 143h-297zM147 0v1462h506q672 -16 672 -731t-672 -731h-506z" />
    <glyph glyph-name="dcaron" unicode="&#x10f;" horiz-adv-x="1320" 
d="M1427 1462l-176 -288h-96l113 288h159zM924 528q0 186 -91 318t-280 133q-117 0 -198 -69q-148 -126 -148 -381t148 -383q81 -69 198 -68q188 0 280 132q91 132 91 318zM1053 1462v-1462h-119v201h-4q-41 -102 -150 -167t-227 -65q-229 0 -352 160q-123 159 -123 399
t123 400t352 159q123 0 225 -61t142 -170h4v606h129z" />
    <glyph glyph-name="Dcroat" unicode="&#x110;" horiz-adv-x="1402" 
d="M287 1343v-538h483v-92h-483v-594h297q317 0 459 143t143 469q0 326 -142 469t-460 143h-297zM147 805v657h506q672 -16 672 -731t-672 -731h-506v713h-147v92h147z" />
    <glyph glyph-name="dcroat" unicode="&#x111;" horiz-adv-x="1224" 
d="M924 528q0 186 -91 318t-280 133q-117 0 -198 -69q-148 -126 -148 -381t148 -383q81 -69 198 -68q188 0 280 132q91 132 91 318zM1053 1196v-1196h-119v201h-4q-41 -102 -150 -167t-227 -65q-229 0 -352 160q-123 159 -123 399t123 400t352 159q123 0 225 -61t142 -170h4
v340h-355v92h355v174h129v-174h172v-92h-172z" />
    <glyph glyph-name="Emacron" unicode="&#x112;" horiz-adv-x="1214" 
d="M993 1696h-674v92h674v-92zM147 0v1462h1010v-119h-870v-528h815v-119h-815v-577h880v-119h-1020z" />
    <glyph glyph-name="emacron" unicode="&#x113;" horiz-adv-x="1062" 
d="M883 1307h-674v92h674v-92zM199 494q0 -162 89 -289t259 -127q264 0 332 270h129q-88 -379 -461 -379q-238 0 -358 158t-119 401q0 321 205 476q112 84 273 84q160 0 270 -89q207 -166 194 -505h-813zM546 979q-148 1 -239 -109q-90 -110 -108 -268h684q-5 154 -97 266
t-240 111z" />
    <glyph glyph-name="Ebreve" unicode="&#x114;" horiz-adv-x="1214" 
d="M647 1704q82 0 144 45q61 45 73 123h80q-16 -121 -95 -191q-79 -69 -203 -69t-202 68t-88 192h80q4 -78 66 -123t145 -45zM147 0v1462h1010v-119h-870v-528h815v-119h-815v-577h880v-119h-1020z" />
    <glyph glyph-name="ebreve" unicode="&#x115;" horiz-adv-x="1062" 
d="M553 1315q82 0 143 45t74 123h80q-16 -121 -95 -191t-203 -70t-202 70q-78 68 -88 191h80q4 -78 66 -123t145 -45zM199 494q0 -162 89 -289t259 -127q264 0 332 270h129q-88 -379 -461 -379q-238 0 -358 158t-119 401q0 321 205 476q112 84 273 84q160 0 270 -89
q207 -166 194 -505h-813zM546 979q-148 1 -239 -109q-90 -110 -108 -268h684q-5 154 -97 266t-240 111z" />
    <glyph glyph-name="Edotaccent" unicode="&#x116;" horiz-adv-x="1214" 
d="M723 1638h-139v207h139v-207zM147 0v1462h1010v-119h-870v-528h815v-119h-815v-577h880v-119h-1020z" />
    <glyph glyph-name="edotaccent" unicode="&#x117;" horiz-adv-x="1062" 
d="M614 1249h-139v207h139v-207zM199 494q0 -162 89 -289t259 -127q264 0 332 270h129q-88 -379 -461 -379q-238 0 -358 158t-119 401q0 321 205 476q112 84 273 84q160 0 270 -89q207 -166 194 -505h-813zM546 979q-148 1 -239 -109q-90 -110 -108 -268h684q-5 154 -97 266
t-240 111z" />
    <glyph glyph-name="Eogonek" unicode="&#x118;" horiz-adv-x="1214" 
d="M1167 0h-94q-106 -88 -137 -137t-31 -99t26 -76q26 -24 64 -24q70 0 113 84l59 -27q-61 -137 -200 -137q-88 0 -138 46q-49 46 -49 122q0 117 215 248h-848v1462h1010v-119h-870v-528h815v-119h-815v-577h880v-119z" />
    <glyph glyph-name="eogonek" unicode="&#x119;" horiz-adv-x="1062" 
d="M546 979q-148 1 -239 -109q-90 -110 -108 -268h684q-5 154 -97 266t-240 111zM199 494q0 -162 89 -289t259 -127q264 0 332 270h129q-74 -339 -392 -375q-22 -18 -64 -61t-55 -76t-13 -78q0 -46 25 -70q26 -24 64 -24q70 0 113 84l59 -27q-61 -137 -200 -137
q-88 0 -137 46q-50 46 -50 120t93 162q25 25 73 57q-106 2 -194 45q-131 66 -196 201q-64 135 -64 297t47 286q47 122 158 206q112 84 273 84q160 0 270 -89q207 -166 194 -505h-813z" />
    <glyph glyph-name="Ecaron" unicode="&#x11a;" horiz-adv-x="1214" 
d="M573 1597l-233 289h133l176 -209l180 209h119l-233 -289h-142zM147 0v1462h1010v-119h-870v-528h815v-119h-815v-577h880v-119h-1020z" />
    <glyph glyph-name="ecaron" unicode="&#x11b;" horiz-adv-x="1062" 
d="M479 1208l-233 289h133l176 -209l180 209h119l-233 -289h-142zM199 494q0 -162 89 -289t259 -127q264 0 332 270h129q-88 -379 -461 -379q-238 0 -358 158t-119 401q0 321 205 476q112 84 273 84q160 0 270 -89q207 -166 194 -505h-813zM546 979q-148 1 -239 -109
q-90 -110 -108 -268h684q-5 154 -97 266t-240 111z" />
    <glyph glyph-name="Gcircumflex" unicode="&#x11c;" horiz-adv-x="1517" 
d="M836 1884l233 -289h-133l-176 209l-180 -209h-119l233 289h142zM1397 743v-743h-101l-18 266h-4q-70 -150 -204 -224t-302 -73t-302 63t-217 168q-171 219 -171 531q0 311 171 531q83 106 217 168t302 63q238 0 404 -126t206 -359h-139q-14 137 -145 252t-326 114
q-139 0 -248 -55q-198 -100 -270 -351q-33 -112 -33 -237q0 -253 130 -440q65 -91 173 -147t248 -56q238 0 374 150t132 387h-498v118h621z" />
    <glyph glyph-name="gcircumflex" unicode="&#x11d;" 
d="M666 1495l233 -289h-133l-176 209l-180 -209h-119l233 289h142zM542 121q165 0 255 124t90 298t-85 305t-256 131t-259 -128t-88 -306t89 -301t254 -123zM1016 1057v-971q0 -248 -111 -378t-358 -130q-174 0 -300 81t-138 239h129q18 -109 104 -160t205 -51
q176 0 258 100t82 299v143h-4q-45 -100 -134 -158t-202 -59q-242 0 -360 150q-117 150 -117 385t128 388t349 152q113 0 204 -60t132 -153h4v183h129z" />
    <glyph glyph-name="Gbreve" unicode="&#x11e;" horiz-adv-x="1517" 
d="M764 1704q82 0 143 45t74 123h80q-16 -121 -95 -191q-79 -69 -203 -69t-202 68t-88 192h80q5 -78 67 -123t144 -45zM1397 743v-743h-101l-18 266h-4q-70 -150 -204 -224t-302 -73t-302 63t-217 168q-171 219 -171 531q0 311 171 531q83 106 217 168t302 63
q238 0 404 -126t206 -359h-139q-14 137 -145 252t-326 114q-139 0 -248 -55q-198 -100 -270 -351q-33 -112 -33 -237q0 -253 130 -440q65 -91 173 -147t248 -56q238 0 374 150t132 387h-498v118h621z" />
    <glyph glyph-name="gbreve" unicode="&#x11f;" 
d="M546 1315q82 0 144 45q61 45 74 123h80q-16 -121 -95 -191t-203 -70t-202 70q-78 68 -88 191h80q4 -78 66 -123t144 -45zM542 121q165 0 255 124t90 298t-85 305t-256 131t-259 -128t-88 -306t89 -301t254 -123zM1016 1057v-971q0 -248 -111 -378t-358 -130
q-174 0 -300 81t-138 239h129q18 -109 104 -160t205 -51q176 0 258 100t82 299v143h-4q-45 -100 -134 -158t-202 -59q-242 0 -360 150q-117 150 -117 385t128 388t349 152q113 0 204 -60t132 -153h4v183h129z" />
    <glyph glyph-name="Gdotaccent" unicode="&#x120;" horiz-adv-x="1517" 
d="M840 1638h-140v207h140v-207zM1397 743v-743h-101l-18 266h-4q-70 -150 -204 -224t-302 -73t-302 63t-217 168q-171 219 -171 531q0 311 171 531q83 106 217 168t302 63q238 0 404 -126t206 -359h-139q-14 137 -145 252t-326 114q-139 0 -248 -55q-198 -100 -270 -351
q-33 -112 -33 -237q0 -253 130 -440q65 -91 173 -147t248 -56q238 0 374 150t132 387h-498v118h621z" />
    <glyph glyph-name="gdotaccent" unicode="&#x121;" 
d="M637 1249h-139v207h139v-207zM542 121q165 0 255 124t90 298t-85 305t-256 131t-259 -128t-88 -306t89 -301t254 -123zM1016 1057v-971q0 -248 -111 -378t-358 -130q-174 0 -300 81t-138 239h129q18 -109 104 -160t205 -51q176 0 258 100t82 299v143h-4
q-45 -100 -134 -158t-202 -59q-242 0 -360 150q-117 150 -117 385t128 388t349 152q113 0 204 -60t132 -153h4v183h129z" />
    <glyph glyph-name="Gcommaaccent" unicode="&#x122;" horiz-adv-x="1517" 
d="M678 -102h176v-164q0 -141 -176 -150v58q74 14 80 69h-80v187zM1397 743v-743h-101l-18 266h-4q-70 -150 -204 -224t-302 -73t-302 63t-217 168q-171 219 -171 531q0 311 171 531q83 106 217 168t302 63q238 0 404 -126t206 -359h-139q-14 137 -145 252t-326 114
q-139 0 -248 -55q-198 -100 -270 -351q-33 -112 -33 -237q0 -253 130 -440q65 -91 173 -147t248 -56q238 0 374 150t132 387h-498v118h621z" />
    <glyph glyph-name="gcommaaccent" unicode="&#x123;" 
d="M659 1276h-176v164q0 141 176 149v-57q-74 -14 -79 -70h79v-186zM542 121q165 0 255 124t90 298t-85 305t-256 131t-259 -128t-88 -306t89 -301t254 -123zM1016 1057v-971q0 -248 -111 -378t-358 -130q-174 0 -300 81t-138 239h129q18 -109 104 -160t205 -51
q176 0 258 100t82 299v143h-4q-45 -100 -134 -158t-202 -59q-242 0 -360 150q-117 150 -117 385t128 388t349 152q113 0 204 -60t132 -153h4v183h129z" />
    <glyph glyph-name="Hcircumflex" unicode="&#x124;" horiz-adv-x="1441" 
d="M795 1884l233 -289h-133l-176 209l-180 -209h-119l233 289h142zM147 0v1462h140v-635h868v635h139v-1462h-139v709h-868v-709h-140z" />
    <glyph glyph-name="hcircumflex" unicode="&#x125;" horiz-adv-x="1099" 
d="M614 1884l234 -289h-133l-176 209l-181 -209h-118l233 289h141zM121 0v1462h129v-588h4q37 94 131 154t207 59q213 0 300 -103t87 -304v-680h-129v659q0 319 -268 320q-152 0 -240 -101t-92 -262v-616h-129z" />
    <glyph glyph-name="Hbar" unicode="&#x126;" horiz-adv-x="1441" 
d="M1155 965h-868v-158h868v158zM147 0v1462h140v-405h868v405h139v-1462h-139v688h-868v-688h-140z" />
    <glyph glyph-name="hbar" unicode="&#x127;" horiz-adv-x="1146" 
d="M168 1288v174h129v-174h313v-92h-313v-322h4q37 94 131 154t207 59q213 0 300 -103t87 -304v-680h-129v659q0 319 -268 320q-152 0 -240 -101t-92 -262v-616h-129v1196h-168v92h168z" />
    <glyph glyph-name="Itilde" unicode="&#x128;" horiz-adv-x="454" 
d="M379 1649q-67 0 -161 47t-130 47q-78 0 -102 -105h-80q8 78 57 138t119 59q70 0 160 -45t123 -45q77 0 106 98h78q-15 -80 -59 -137t-111 -57zM158 0v1462h139v-1462h-139z" />
    <glyph glyph-name="itilde" unicode="&#x129;" horiz-adv-x="378" 
d="M342 1260q-68 0 -162 47t-129 47q-78 0 -102 -105h-80q8 78 57 137q90 108 279 15q90 -45 123 -45q77 0 106 98h78q-14 -80 -58 -137t-112 -57zM254 0h-129v1057h129v-1057z" />
    <glyph glyph-name="Imacron" unicode="&#x12a;" horiz-adv-x="454" 
d="M565 1696h-674v92h674v-92zM158 0v1462h139v-1462h-139z" />
    <glyph glyph-name="imacron" unicode="&#x12b;" horiz-adv-x="378" 
d="M528 1307h-673v92h673v-92zM254 0h-129v1057h129v-1057z" />
    <glyph glyph-name="Iogonek" unicode="&#x12e;" horiz-adv-x="454" 
d="M297 1462v-1462q-96 -90 -124 -138t-28 -98t24 -76q24 -24 58 -24q63 0 101 84l55 -27q-57 -137 -182 -137q-80 0 -124 46t-44 122q0 119 194 248h-69v1462h139z" />
    <glyph glyph-name="iogonek" unicode="&#x12f;" horiz-adv-x="378" 
d="M125 1255v207h129v-207h-129zM254 1057v-1057q-96 -88 -124 -137t-28 -99t25 -76q25 -24 57 -24q63 0 101 84l53 -27q-53 -137 -180 -137q-78 0 -123 46t-45 122q0 115 194 248h-59v1057h129z" />
    <glyph glyph-name="Idotaccent" unicode="&#x130;" horiz-adv-x="454" 
d="M297 1638h-139v207h139v-207zM158 0v1462h139v-1462h-139z" />
    <glyph glyph-name="dotlessi" unicode="&#x131;" horiz-adv-x="378" 
d="M254 0h-129v1057h129v-1057z" />
    <glyph glyph-name="Jcircumflex" unicode="&#x134;" horiz-adv-x="1024" 
d="M870 1884l234 -289h-133l-176 209l-181 -209h-118l233 289h141zM737 467v995h140v-1054q1 -226 -97 -332t-329 -107q-408 0 -408 500h139q0 -143 19 -189l16 -48t42 -68t62 -49q78 -27 142 -27q160 0 217 85t57 294z" />
    <glyph glyph-name="jcircumflex" unicode="&#x135;" horiz-adv-x="378" 
d="M256 1495l233 -289h-133l-176 209l-180 -209h-119l234 289h141zM125 -129v1186h129v-1155q0 -293 -225 -293l-90 4v106q47 -4 69 -2q70 0 94 39t23 115z" />
    <glyph glyph-name="Kcommaaccent" unicode="&#x136;" horiz-adv-x="1327" 
d="M596 -102h176v-164q0 -141 -176 -150v58q74 14 80 69h-80v187zM147 0v1462h140v-786l850 786h188l-653 -604l684 -858h-180l-609 762l-280 -260v-502h-140z" />
    <glyph glyph-name="kcommaaccent" unicode="&#x137;" horiz-adv-x="1024" 
d="M453 -102h176v-164q0 -141 -176 -150v58q74 14 79 69h-79v187zM123 0v1462h129v-917l586 512h172l-451 -391l481 -666h-161l-418 575l-209 -174v-401h-129z" />
    <glyph glyph-name="Lacute" unicode="&#x139;" horiz-adv-x="1099" 
d="M537 1886l-271 -289h-104l215 289h160zM147 0v1462h140v-1343h819v-119h-959z" />
    <glyph glyph-name="lacute" unicode="&#x13a;" horiz-adv-x="378" 
d="M500 1886l-271 -289h-104l215 289h160zM125 0v1462h129v-1462h-129z" />
    <glyph glyph-name="Lcommaaccent" unicode="&#x13b;" horiz-adv-x="1099" 
d="M512 -102h176v-164q0 -141 -176 -150v58q74 14 80 69h-80v187zM147 0v1462h140v-1343h819v-119h-959z" />
    <glyph glyph-name="lcommaaccent" unicode="&#x13c;" horiz-adv-x="378" 
d="M102 -102h177v-164q0 -141 -177 -150v58q74 14 80 69h-80v187zM125 0v1462h129v-1462h-129z" />
    <glyph glyph-name="Lcaron" unicode="&#x13d;" horiz-adv-x="1099" 
d="M774 1462l-176 -288h-96l112 288h160zM147 0v1462h140v-1343h819v-119h-959z" />
    <glyph glyph-name="lcaron" unicode="&#x13e;" horiz-adv-x="522" 
d="M629 1462l-176 -288h-97l113 288h160zM125 0v1462h129v-1462h-129z" />
    <glyph glyph-name="Ldot" unicode="&#x13f;" horiz-adv-x="1099" 
d="M729 850h-139v207h139v-207zM147 0v1462h140v-1343h819v-119h-959z" />
    <glyph glyph-name="ldot" unicode="&#x140;" horiz-adv-x="606" 
d="M524 850h-139v207h139v-207zM125 0v1462h129v-1462h-129z" />
    <glyph glyph-name="Lslash" unicode="&#x141;" horiz-adv-x="1099" 
d="M147 1462h140v-739l497 344v-115l-497 -342v-491h819v-119h-959v514l-167 -117v115l167 115v835z" />
    <glyph glyph-name="lslash" unicode="&#x142;" horiz-adv-x="378" 
d="M125 1462h129v-547l137 113v-113l-137 -112v-803h-129v696l-137 -112v112l137 113v653z" />
    <glyph glyph-name="Nacute" unicode="&#x143;" horiz-adv-x="1441" 
d="M1018 1886l-270 -289h-105l215 289h160zM145 0v1462h156l852 -1237h4v1237h139v-1462h-155l-852 1237h-4v-1237h-140z" />
    <glyph glyph-name="nacute" unicode="&#x144;" horiz-adv-x="1099" 
d="M858 1497l-270 -289h-105l215 289h160zM121 0v1057h129v-183h4q37 94 131 154t207 59q213 0 300 -103t87 -304v-680h-129v659q0 319 -268 320q-152 0 -240 -101t-92 -262v-616h-129z" />
    <glyph glyph-name="Ncommaaccent" unicode="&#x145;" horiz-adv-x="1441" 
d="M621 -102h176v-164q0 -141 -176 -150v58q74 14 79 69h-79v187zM145 0v1462h156l852 -1237h4v1237h139v-1462h-155l-852 1237h-4v-1237h-140z" />
    <glyph glyph-name="ncommaaccent" unicode="&#x146;" horiz-adv-x="1099" 
d="M473 -102h176v-164q0 -141 -176 -150v58q74 14 80 69h-80v187zM121 0v1057h129v-183h4q37 94 131 154t207 59q213 0 300 -103t87 -304v-680h-129v659q0 319 -268 320q-152 0 -240 -101t-92 -262v-616h-129z" />
    <glyph glyph-name="Ncaron" unicode="&#x147;" horiz-adv-x="1441" 
d="M637 1597l-234 289h134l176 -209l180 209h119l-234 -289h-141zM145 0v1462h156l852 -1237h4v1237h139v-1462h-155l-852 1237h-4v-1237h-140z" />
    <glyph glyph-name="ncaron" unicode="&#x148;" horiz-adv-x="1099" 
d="M477 1208l-233 289h133l176 -209l180 209h119l-234 -289h-141zM121 0v1057h129v-183h4q37 94 131 154t207 59q213 0 300 -103t87 -304v-680h-129v659q0 319 -268 320q-152 0 -240 -101t-92 -262v-616h-129z" />
    <glyph glyph-name="Omacron" unicode="&#x14c;" horiz-adv-x="1517" 
d="M1100 1696h-674v92h674v-92zM760 1493q221 0 380 -109q160 -110 234 -278t74 -375t-75 -376t-233 -277t-380 -109q-168 1 -302 63t-217 168q-171 219 -171 531q0 311 171 531q83 106 217 168t302 63zM209 731q0 -253 130 -440q65 -91 173 -147t248 -56q139 0 248 55
t172 147q129 189 129 442q0 252 -129 439q-63 91 -172 147t-248 56t-248 -55q-198 -100 -270 -351q-33 -112 -33 -237z" />
    <glyph glyph-name="omacron" unicode="&#x14d;" 
d="M915 1307h-673v92h673v-92zM569 1087q233 0 367 -160q133 -161 133 -399t-133 -398q-132 -160 -366 -161q-234 0 -367 161q-133 160 -133 398t133 398t366 161zM569 979q-174 0 -272 -134q-98 -135 -98 -317t98 -316t272 -134t273 134q98 134 98 316t-98 317
q-99 134 -273 134z" />
    <glyph glyph-name="Obreve" unicode="&#x14e;" horiz-adv-x="1517" 
d="M760 1704q82 0 143 45t74 123h80q-16 -121 -95 -191q-79 -69 -203 -69t-202 68t-88 192h80q4 -78 66 -123q63 -45 145 -45zM760 1493q221 0 380 -109q160 -110 234 -278t74 -375t-75 -376t-233 -277t-380 -109q-168 1 -302 63t-217 168q-171 219 -171 531q0 311 171 531
q83 106 217 168t302 63zM209 731q0 -253 130 -440q65 -91 173 -147t248 -56q139 0 248 55t172 147q129 189 129 442q0 252 -129 439q-63 91 -172 147t-248 56t-248 -55q-198 -100 -270 -351q-33 -112 -33 -237z" />
    <glyph glyph-name="obreve" unicode="&#x14f;" 
d="M573 1315q82 0 144 45q61 45 74 123h79q-16 -121 -95 -191t-203 -70t-202 70q-78 68 -87 191h79q4 -78 66 -123t145 -45zM569 1087q233 0 367 -160q133 -161 133 -399t-133 -398q-132 -160 -366 -161q-234 0 -367 161q-133 160 -133 398t133 398t366 161zM569 979
q-174 0 -272 -134q-98 -135 -98 -317t98 -316t272 -134t273 134q98 134 98 316t-98 317q-99 134 -273 134z" />
    <glyph glyph-name="Ohungarumlaut" unicode="&#x150;" horiz-adv-x="1517" 
d="M643 1597h-104l206 289h156zM963 1597h-105l207 289h156zM760 1493q221 0 380 -109q160 -110 234 -278t74 -375t-75 -376t-233 -277t-380 -109q-168 1 -302 63t-217 168q-171 219 -171 531q0 311 171 531q83 106 217 168t302 63zM209 731q0 -253 130 -440
q65 -91 173 -147t248 -56q139 0 248 55t172 147q129 189 129 442q0 252 -129 439q-63 91 -172 147t-248 56t-248 -55q-198 -100 -270 -351q-33 -112 -33 -237z" />
    <glyph glyph-name="ohungarumlaut" unicode="&#x151;" 
d="M455 1208h-105l207 289h156zM774 1208h-104l207 289h155zM569 1087q233 0 367 -160q133 -161 133 -399t-133 -398q-132 -160 -366 -161q-234 0 -367 161q-133 160 -133 398t133 398t366 161zM569 979q-174 0 -272 -134q-98 -135 -98 -317t98 -316t272 -134t273 134
q98 134 98 316t-98 317q-99 134 -273 134z" />
    <glyph glyph-name="OE" unicode="&#x152;" horiz-adv-x="2199" 
d="M1165 1042q0 94 -10 136q-35 88 -154 142t-233 54q-256 0 -404 -186t-148 -456t148 -458q148 -186 392 -186t372 162q33 40 37 112v680zM1305 1343v-528h753v-119h-753v-577h837v-119h-977v143q-71 -84 -179 -129t-218 -45q-315 0 -504 221q-188 220 -188 540t188 542
t504 221q260 0 397 -152v121h971v-119h-831z" />
    <glyph glyph-name="oe" unicode="&#x153;" horiz-adv-x="1820" 
d="M543 979q-127 0 -207 -76t-107 -176t-26 -223q0 -176 84 -301t254 -125q311 0 311 450t-309 451zM981 494q0 -170 84 -293t246 -123q249 0 325 262h129q-43 -178 -163 -274t-304 -97q-135 0 -240 71t-136 198h-4q-38 -131 -138 -200t-241 -69q-236 0 -351 159
q-114 160 -114 398t122 400t349 161q294 0 377 -260h4q43 119 146 190t243 70q231 0 342 -148t110 -445h-786zM981 602h657q0 158 -87 268t-243 109t-241 -109q-86 -108 -86 -268z" />
    <glyph glyph-name="Racute" unicode="&#x154;" horiz-adv-x="1366" 
d="M958 1886l-270 -289h-104l215 289h159zM147 0v1462h670q193 0 319 -96t126 -285q0 -143 -74 -243t-211 -129v-4q135 -17 191 -101t65 -229q0 -85 12 -187q13 -102 25 -135t30 -53h-153q-28 42 -37 207q-14 280 -85 364t-210 78h-528v-649h-140zM287 1343v-575h520
q133 0 224 78t91 211t-80 210t-235 76h-520z" />
    <glyph glyph-name="racute" unicode="&#x155;" horiz-adv-x="645" 
d="M510 1497l-270 -289h-105l215 289h160zM123 0v1057h119v-248h4q49 131 153 200t246 62v-129q-172 8 -283 -102t-110 -277v-563h-129z" />
    <glyph glyph-name="Rcommaaccent" unicode="&#x156;" horiz-adv-x="1366" 
d="M602 -102h176v-164q0 -141 -176 -150v58q74 14 80 69h-80v187zM147 0v1462h670q193 0 319 -96t126 -285q0 -143 -74 -243t-211 -129v-4q135 -17 191 -101t65 -229q0 -85 12 -187q13 -102 25 -135t30 -53h-153q-28 42 -37 207q-14 280 -85 364t-210 78h-528v-649h-140z
M287 1343v-575h520q133 0 224 78t91 211t-80 210t-235 76h-520z" />
    <glyph glyph-name="rcommaaccent" unicode="&#x157;" horiz-adv-x="645" 
d="M102 -102h177v-164q0 -141 -177 -150v58q74 14 80 69h-80v187zM123 0v1057h119v-248h4q49 131 153 200t246 62v-129q-172 8 -283 -102t-110 -277v-563h-129z" />
    <glyph glyph-name="Rcaron" unicode="&#x158;" horiz-adv-x="1366" 
d="M563 1597l-233 289h133l176 -209l180 209h119l-233 -289h-142zM147 0v1462h670q193 0 319 -96t126 -285q0 -143 -74 -243t-211 -129v-4q135 -17 191 -101t65 -229q0 -85 12 -187q13 -102 25 -135t30 -53h-153q-28 42 -37 207q-14 280 -85 364t-210 78h-528v-649h-140z
M287 1343v-575h520q133 0 224 78t91 211t-80 210t-235 76h-520z" />
    <glyph glyph-name="rcaron" unicode="&#x159;" horiz-adv-x="645" 
d="M307 1208l-233 289h133l176 -209l180 209h119l-233 -289h-142zM123 0v1057h119v-248h4q49 131 153 200t246 62v-129q-172 8 -283 -102t-110 -277v-563h-129z" />
    <glyph glyph-name="Sacute" unicode="&#x15a;" horiz-adv-x="1290" 
d="M942 1886l-270 -289h-105l215 289h160zM690 88q201 0 321 127q67 72 66 170q0 193 -301 264l-325 80q-152 39 -241 117t-89 222t96 271q51 68 157 111t251 43q231 0 386 -119t154 -336h-139q-8 160 -122 248t-276 88t-264 -70q-103 -70 -104 -221q0 -174 221 -223
l357 -88q178 -47 278 -134t101 -251q1 -97 -41 -175q-42 -79 -97 -126t-165 -82t-257 -35q-274 0 -435 128q-160 128 -148 384h139q-8 -393 477 -393z" />
    <glyph glyph-name="sacute" unicode="&#x15b;" horiz-adv-x="985" 
d="M807 1497l-270 -289h-105l215 289h160zM488 979q-108 0 -184 -44q-75 -44 -75 -138q0 -123 220 -179l172 -38q127 -18 214 -92t87 -201q0 -158 -128 -238t-296 -80q-401 0 -435 373h130q8 -127 93 -196q85 -68 207 -68q123 0 211 50t88 142t-60 134q-62 40 -171 67
l-166 37q-145 37 -220 98t-75 198q0 136 119 210t282 74t269 -88q106 -86 115 -252h-129q-4 115 -82 173t-186 58z" />
    <glyph glyph-name="Scircumflex" unicode="&#x15c;" horiz-adv-x="1290" 
d="M721 1884l233 -289h-133l-176 209l-180 -209h-119l234 289h141zM690 88q201 0 321 127q67 72 66 170q0 193 -301 264l-325 80q-152 39 -241 117t-89 222t96 271q51 68 157 111t251 43q231 0 386 -119t154 -336h-139q-8 160 -122 248t-276 88t-264 -70q-103 -70 -104 -221
q0 -174 221 -223l357 -88q178 -47 278 -134t101 -251q1 -97 -41 -175q-42 -79 -97 -126t-165 -82t-257 -35q-274 0 -435 128q-160 128 -148 384h139q-8 -393 477 -393z" />
    <glyph glyph-name="scircumflex" unicode="&#x15d;" horiz-adv-x="985" 
d="M573 1495l234 -289h-133l-176 209l-181 -209h-118l233 289h141zM488 979q-108 0 -184 -44q-75 -44 -75 -138q0 -123 220 -179l172 -38q127 -18 214 -92t87 -201q0 -158 -128 -238t-296 -80q-401 0 -435 373h130q8 -127 93 -196q85 -68 207 -68q123 0 211 50t88 142
t-60 134q-62 40 -171 67l-166 37q-145 37 -220 98t-75 198q0 136 119 210t282 74t269 -88q106 -86 115 -252h-129q-4 115 -82 173t-186 58z" />
    <glyph glyph-name="Scedilla" unicode="&#x15e;" horiz-adv-x="1290" 
d="M690 88q201 0 321 127q67 72 66 170q0 193 -301 264l-325 80q-152 39 -241 117t-89 222t96 271q51 68 157 111t251 43q231 0 386 -119t154 -336h-139q-8 160 -122 248t-276 88t-264 -70q-103 -70 -104 -221q0 -174 221 -223l357 -88q178 -47 278 -134t101 -251
q0 -89 -52 -198q-31 -65 -105 -117q-142 -99 -396 -103l-66 -80q45 10 102 7q135 -23 136 -136q0 -86 -69 -131t-167 -45t-182 43l28 66q70 -29 170 -29t101 88q0 35 -26 57q-26 21 -78 21t-89 -16l-32 30l100 127q-304 21 -434 194q-92 121 -84 316h139q-8 -393 477 -393z
" />
    <glyph glyph-name="Scedilla" unicode="&#xf6c1;" horiz-adv-x="1290" 
d="M690 88q201 0 321 127q67 72 66 170q0 193 -301 264l-325 80q-152 39 -241 117t-89 222t96 271q51 68 157 111t251 43q231 0 386 -119t154 -336h-139q-8 160 -122 248t-276 88t-264 -70q-103 -70 -104 -221q0 -174 221 -223l357 -88q178 -47 278 -134t101 -251
q0 -89 -52 -198q-31 -65 -105 -117q-142 -99 -396 -103l-66 -80q45 10 102 7q135 -23 136 -136q0 -86 -69 -131t-167 -45t-182 43l28 66q70 -29 170 -29t101 88q0 35 -26 57q-26 21 -78 21t-89 -16l-32 30l100 127q-304 21 -434 194q-92 121 -84 316h139q-8 -393 477 -393z
" />
    <glyph glyph-name="scedilla" unicode="&#x15f;" horiz-adv-x="985" 
d="M488 979q-108 0 -184 -44q-75 -44 -75 -138q0 -123 220 -179l172 -38q127 -18 214 -92t87 -198t-78 -201t-197 -101q-68 -16 -131 -19l-65 -80q45 10 102 7q135 -23 135 -136q0 -86 -68 -131t-168 -45q-98 0 -182 43l29 66q71 -29 171 -29t99 88q0 35 -25 57
q-26 21 -78 21t-89 -16l-33 30l100 127q-148 8 -256 92t-125 279h130q8 -127 93 -196q85 -68 207 -68q123 0 211 50t88 142t-60 134q-62 40 -171 67l-166 37q-145 37 -220 98t-75 198q0 136 119 210t282 74t269 -88q106 -86 115 -252h-129q-4 115 -82 173t-186 58z" />
    <glyph glyph-name="scedilla" unicode="&#xf6c2;" horiz-adv-x="985" 
d="M488 979q-108 0 -184 -44q-75 -44 -75 -138q0 -123 220 -179l172 -38q127 -18 214 -92t87 -198t-78 -201t-197 -101q-68 -16 -131 -19l-65 -80q45 10 102 7q135 -23 135 -136q0 -86 -68 -131t-168 -45q-98 0 -182 43l29 66q71 -29 171 -29t99 88q0 35 -25 57
q-26 21 -78 21t-89 -16l-33 30l100 127q-148 8 -256 92t-125 279h130q8 -127 93 -196q85 -68 207 -68q123 0 211 50t88 142t-60 134q-62 40 -171 67l-166 37q-145 37 -220 98t-75 198q0 136 119 210t282 74t269 -88q106 -86 115 -252h-129q-4 115 -82 173t-186 58z" />
    <glyph glyph-name="Scaron" unicode="&#x160;" horiz-adv-x="1290" 
d="M575 1597l-233 289h133l176 -209l180 209h119l-233 -289h-142zM690 88q201 0 321 127q67 72 66 170q0 193 -301 264l-325 80q-152 39 -241 117t-89 222t96 271q51 68 157 111t251 43q231 0 386 -119t154 -336h-139q-8 160 -122 248t-276 88t-264 -70q-103 -70 -104 -221
q0 -174 221 -223l357 -88q178 -47 278 -134t101 -251q1 -97 -41 -175q-42 -79 -97 -126t-165 -82t-257 -35q-274 0 -435 128q-160 128 -148 384h139q-8 -393 477 -393z" />
    <glyph glyph-name="scaron" unicode="&#x161;" horiz-adv-x="985" 
d="M432 1208l-233 289h133l176 -209l180 209h119l-234 -289h-141zM488 979q-108 0 -184 -44q-75 -44 -75 -138q0 -123 220 -179l172 -38q127 -18 214 -92t87 -201q0 -158 -128 -238t-296 -80q-401 0 -435 373h130q8 -127 93 -196q85 -68 207 -68q123 0 211 50t88 142
t-60 134q-62 40 -171 67l-166 37q-145 37 -220 98t-75 198q0 136 119 210t282 74t269 -88q106 -86 115 -252h-129q-4 115 -82 173t-186 58z" />
    <glyph glyph-name="Tcommaaccent" unicode="&#x162;" 
d="M481 -102h176v-164q0 -141 -176 -150v58q74 14 80 69h-80v187zM-10 1343v119h1159v-119h-510v-1343h-139v1343h-510z" />
    <glyph glyph-name="tcommaaccent" unicode="&#x163;" horiz-adv-x="606" 
d="M279 -102h176v-164q0 -141 -176 -150v58q74 14 79 69h-79v187zM199 948h-185v109h185v317h129v-317h215v-109h-215v-712q0 -70 20 -103t80 -35t115 4v-110l-115 -4q-129 0 -180 51t-49 186v723z" />
    <glyph glyph-name="Tcaron" unicode="&#x164;" 
d="M502 1597l-234 289h133l177 -209l180 209h119l-234 -289h-141zM-10 1343v119h1159v-119h-510v-1343h-139v1343h-510z" />
    <glyph glyph-name="tcaron" unicode="&#x165;" horiz-adv-x="679" 
d="M199 948h-185v109h185v317h129v-317h215v-109h-215v-712q0 -70 20 -103t80 -35t115 4v-110l-115 -4q-129 0 -180 51t-49 186v723zM786 1462l-176 -288h-96l113 288h159z" />
    <glyph glyph-name="Tbar" unicode="&#x166;" 
d="M-10 1343v119h1159v-119h-510v-348h338v-92h-338v-903h-139v903h-336v92h336v348h-510z" />
    <glyph glyph-name="tbar" unicode="&#x167;" horiz-adv-x="606" 
d="M199 653h-205v92h205v203h-185v109h185v317h129v-317h215v-109h-215v-203h239v-92h-239v-417q0 -70 20 -103t80 -35t115 4v-110l-115 -4q-129 0 -180 51t-49 186v428z" />
    <glyph glyph-name="Utilde" unicode="&#x168;" horiz-adv-x="1402" 
d="M852 1649q-68 0 -162 47q-92 47 -129 47q-78 0 -102 -105h-80q8 78 57 138q48 60 118 59q70 0 160 -45t124 -45q77 0 106 98h78q-14 -80 -58 -137t-112 -57zM133 526v936h139v-905q0 -245 109 -357t319 -112t321 112q110 112 109 357v905h140v-936q0 -246 -140 -402
t-429 -155q-288 1 -428 157t-140 400z" />
    <glyph glyph-name="utilde" unicode="&#x169;" horiz-adv-x="1099" 
d="M702 1260q-68 0 -161 47q-94 47 -129 47q-78 0 -103 -105h-80q7 78 57 137q50 60 120 60t159 -45q90 -45 123 -45q78 0 107 98h77q-14 -80 -58 -137t-112 -57zM979 1057v-1057h-119v190h-4q-49 -104 -147 -162t-217 -59q-371 0 -371 402v686h129v-688q4 -147 68 -219
t218 -72q152 0 233 124t81 300v555h129z" />
    <glyph glyph-name="Umacron" unicode="&#x16a;" horiz-adv-x="1402" 
d="M1034 1696h-674v92h674v-92zM133 526v936h139v-905q0 -245 109 -357t319 -112t321 112q110 112 109 357v905h140v-936q0 -246 -140 -402t-429 -155q-288 1 -428 157t-140 400z" />
    <glyph glyph-name="umacron" unicode="&#x16b;" horiz-adv-x="1099" 
d="M891 1307h-674v92h674v-92zM979 1057v-1057h-119v190h-4q-49 -104 -147 -162t-217 -59q-371 0 -371 402v686h129v-688q4 -147 68 -219t218 -72q152 0 233 124t81 300v555h129z" />
    <glyph glyph-name="Ubreve" unicode="&#x16c;" horiz-adv-x="1402" 
d="M694 1704q82 0 144 45q61 45 73 123h80q-16 -121 -95 -191q-79 -69 -203 -69t-202 68t-88 192h80q5 -78 67 -123t144 -45zM133 526v936h139v-905q0 -245 109 -357t319 -112t321 112q110 112 109 357v905h140v-936q0 -246 -140 -402t-429 -155q-288 1 -428 157t-140 400z
" />
    <glyph glyph-name="ubreve" unicode="&#x16d;" horiz-adv-x="1099" 
d="M553 1315q82 0 143 45t74 123h80q-16 -121 -95 -191t-203 -70t-202 70q-78 68 -88 191h80q4 -78 66 -123t145 -45zM979 1057v-1057h-119v190h-4q-49 -104 -147 -162t-217 -59q-371 0 -371 402v686h129v-688q4 -147 68 -219t218 -72q152 0 233 124t81 300v555h129z" />
    <glyph glyph-name="Uring" unicode="&#x16e;" horiz-adv-x="1402" 
d="M477 1761q0 90 65 155q64 64 154 64t155 -64t65 -155t-66 -155q-64 -64 -154 -64t-154 64t-65 155zM557 1761q0 -59 40 -99t99 -40t100 40q40 40 40 99t-40 99t-100 41q-60 -1 -99 -41q-40 -40 -40 -99zM133 526v936h139v-905q0 -245 109 -357t319 -112t321 112
q110 112 109 357v905h140v-936q0 -246 -140 -402t-429 -155q-288 1 -428 157t-140 400z" />
    <glyph glyph-name="uring" unicode="&#x16f;" horiz-adv-x="1099" 
d="M334 1393q0 91 64 155t155 64q90 0 155 -65q64 -65 64 -155t-64 -154t-155 -64q-90 0 -155 64q-64 65 -64 155zM414 1393q0 -59 40 -99t99 -41q59 0 99 40q40 39 40 99t-40 100t-99 40t-99 -40t-40 -99zM979 1057v-1057h-119v190h-4q-49 -104 -147 -162t-217 -59
q-371 0 -371 402v686h129v-688q4 -147 68 -219t218 -72q152 0 233 124t81 300v555h129z" />
    <glyph glyph-name="Uhungarumlaut" unicode="&#x170;" horiz-adv-x="1402" 
d="M578 1597h-105l207 289h156zM897 1597h-104l206 289h156zM133 526v936h139v-905q0 -245 109 -357t319 -112t321 112q110 112 109 357v905h140v-936q0 -246 -140 -402t-429 -155q-288 1 -428 157t-140 400z" />
    <glyph glyph-name="uhungarumlaut" unicode="&#x171;" horiz-adv-x="1099" 
d="M438 1208h-104l207 289h155zM758 1208h-105l207 289h156zM979 1057v-1057h-119v190h-4q-49 -104 -147 -162t-217 -59q-371 0 -371 402v686h129v-688q4 -147 68 -219t218 -72q152 0 233 124t81 300v555h129z" />
    <glyph glyph-name="Uogonek" unicode="&#x172;" horiz-adv-x="1402" 
d="M133 526v936h139v-905q0 -245 109 -357t319 -112t321 112q110 112 109 357v905h140v-936q0 -383 -309 -512q-82 -33 -199 -43q-131 -105 -131 -211q-1 -48 25 -72t65 -24q70 0 113 84l59 -27q-61 -137 -201 -137q-88 0 -137 46t-49 120t92 162q25 25 74 57
q-127 2 -232 45q-307 129 -307 512z" />
    <glyph glyph-name="uogonek" unicode="&#x173;" horiz-adv-x="1099" 
d="M979 0h-41q-106 -88 -137 -137t-31 -99t26 -76q26 -24 64 -24q70 0 113 84l59 -27q-61 -137 -201 -137q-88 0 -137 46t-49 122q0 117 215 248v190h-4q-49 -104 -147 -162t-217 -59q-371 0 -371 402v686h129v-688q4 -147 68 -219t218 -72q152 0 233 124t81 300v555h129
v-1057z" />
    <glyph glyph-name="Wcircumflex" unicode="&#x174;" horiz-adv-x="1857" 
d="M1001 1884l234 -289h-133l-176 209l-181 -209h-118l233 289h141zM406 0l-406 1462h150l331 -1280h4l357 1280h174l358 -1280h4l334 1280h139l-403 -1462h-148l-370 1309h-4l-369 -1309h-151z" />
    <glyph glyph-name="wcircumflex" unicode="&#x175;" horiz-adv-x="1517" 
d="M829 1495l234 -289h-133l-176 209l-181 -209h-118l233 289h141zM356 0l-340 1057h138l270 -905h4l258 905h145l259 -905h4l270 905h137l-340 -1057h-141l-260 889h-4l-258 -889h-142z" />
    <glyph glyph-name="Ycircumflex" unicode="&#x176;" horiz-adv-x="1251" 
d="M707 1884l233 -289h-133l-176 209l-180 -209h-119l233 289h142zM555 0v602l-575 860h165l482 -741l479 741h166l-578 -860v-602h-139z" />
    <glyph glyph-name="ycircumflex" unicode="&#x177;" horiz-adv-x="948" 
d="M559 1495l234 -289h-134l-176 209l-180 -209h-119l234 289h141zM426 4l-422 1053h137l348 -901l326 901h129l-459 -1219q-59 -139 -110 -184t-168 -45q-78 4 -98 10v109q105 -21 157 0q47 16 82 86q10 20 33 69z" />
    <glyph glyph-name="Ydieresis" unicode="&#x178;" horiz-adv-x="1251" 
d="M877 1638h-140v207h140v-207zM514 1638h-139v207h139v-207zM555 0v602l-575 860h165l482 -741l479 741h166l-578 -860v-602h-139z" />
    <glyph glyph-name="Zacute" unicode="&#x179;" horiz-adv-x="1175" 
d="M897 1886l-270 -289h-105l215 289h160zM76 1343v119h1052v-123l-962 -1220h983v-119h-1139v123l963 1220h-897z" />
    <glyph glyph-name="zacute" unicode="&#x17a;" horiz-adv-x="948" 
d="M786 1497l-270 -289h-104l215 289h159zM913 109v-109h-882v104l690 844h-643v109h807v-92l-699 -856h727z" />
    <glyph glyph-name="Zdotaccent" unicode="&#x17b;" horiz-adv-x="1175" 
d="M670 1638h-140v207h140v-207zM76 1343v119h1052v-123l-962 -1220h983v-119h-1139v123l963 1220h-897z" />
    <glyph glyph-name="zdotaccent" unicode="&#x17c;" horiz-adv-x="948" 
d="M547 1249h-139v207h139v-207zM913 109v-109h-882v104l690 844h-643v109h807v-92l-699 -856h727z" />
    <glyph glyph-name="Zcaron" unicode="&#x17d;" horiz-adv-x="1175" 
d="M516 1597l-233 289h133l176 -209l180 209h119l-234 -289h-141zM76 1343v119h1052v-123l-962 -1220h983v-119h-1139v123l963 1220h-897z" />
    <glyph glyph-name="zcaron" unicode="&#x17e;" horiz-adv-x="948" 
d="M403 1208l-233 289h133l176 -209l180 209h119l-233 -289h-142zM913 109v-109h-882v104l690 844h-643v109h807v-92l-699 -856h727z" />
    <glyph glyph-name="florin" unicode="&#x192;" 
d="M317 -298q-63 -56 -205 -56q-42 0 -98 10l19 111q53 -12 106 -13q139 6 189 230l153 807h-205l19 108h207l26 141q47 203 76 263q78 160 273 159q55 0 127 -10l-25 -106q-93 18 -150 -2t-80 -51q-47 -63 -78 -204q-9 -40 -12 -53l-28 -137h231l-18 -108h-232l-125 -662
q-4 -16 -23 -119t-50 -177t-51 -90q-19 -17 -46 -41z" />
    <glyph glyph-name="Scommaaccent" unicode="&#x218;" horiz-adv-x="1290" 
d="M563 -102h176v-164q0 -141 -176 -150v58q74 14 80 69h-80v187zM690 88q201 0 321 127q67 72 66 170q0 193 -301 264l-325 80q-152 39 -241 117t-89 222t96 271q51 68 157 111t251 43q231 0 386 -119t154 -336h-139q-8 160 -122 248t-276 88t-264 -70q-103 -70 -104 -221
q0 -174 221 -223l357 -88q178 -47 278 -134t101 -251q1 -97 -41 -175q-42 -79 -97 -126t-165 -82t-257 -35q-274 0 -435 128q-160 128 -148 384h139q-8 -393 477 -393z" />
    <glyph glyph-name="scommaaccent" unicode="&#x219;" horiz-adv-x="985" 
d="M408 -102h176v-164q0 -141 -176 -150v58q74 14 79 69h-79v187zM488 979q-108 0 -184 -44q-75 -44 -75 -138q0 -123 220 -179l172 -38q127 -18 214 -92t87 -201q0 -158 -128 -238t-296 -80q-401 0 -435 373h130q8 -127 93 -196q85 -68 207 -68q123 0 211 50t88 142
t-60 134q-62 40 -171 67l-166 37q-145 37 -220 98t-75 198q0 136 119 210t282 74t269 -88q106 -86 115 -252h-129q-4 115 -82 173t-186 58z" />
    <glyph glyph-name="uni021A" unicode="&#x21a;" 
d="M481 -102h176v-164q0 -141 -176 -150v58q74 14 80 69h-80v187zM-10 1343v119h1159v-119h-510v-1343h-139v1343h-510z" />
    <glyph glyph-name="uni021B" unicode="&#x21b;" horiz-adv-x="606" 
d="M279 -102h176v-164q0 -141 -176 -150v58q74 14 79 69h-79v187zM199 948h-185v109h185v317h129v-317h215v-109h-215v-712q0 -70 20 -103t80 -35t115 4v-110l-115 -4q-129 0 -180 51t-49 186v723z" />
    <glyph glyph-name="circumflex" unicode="&#x2c6;" horiz-adv-x="378" 
d="M266 1495l234 -289h-133l-177 209l-180 -209h-119l234 289h141z" />
    <glyph glyph-name="caron" unicode="&#x2c7;" horiz-adv-x="378" 
d="M111 1208l-234 289h133l176 -209l181 209h118l-233 -289h-141z" />
    <glyph glyph-name="uni02C9" unicode="&#x2c9;" horiz-adv-x="378" 
d="M526 1307h-673v92h673v-92z" />
    <glyph glyph-name="breve" unicode="&#x2d8;" horiz-adv-x="378" 
d="M186 1315q82 0 144 45q61 45 73 123h80q-16 -121 -95 -191t-203 -70q-123 0 -201 70q-78 68 -88 191h79q5 -78 67 -123t144 -45z" />
    <glyph glyph-name="dotaccent" unicode="&#x2d9;" horiz-adv-x="378" 
d="M260 1249h-139v207h139v-207z" />
    <glyph glyph-name="ring" unicode="&#x2da;" horiz-adv-x="378" 
d="M-29 1393q0 91 65 155q64 64 154 64t155 -65t65 -155t-65 -154t-155 -64t-154 64t-65 155zM51 1393q0 -59 40 -99t99 -41q59 0 100 40q40 39 40 99t-40 100t-100 40t-99 -40q-40 -40 -40 -99z" />
    <glyph glyph-name="ogonek" unicode="&#x2db;" horiz-adv-x="378" 
d="M219 -236q0 -50 26 -76q26 -24 64 -24q70 0 113 84l59 -27q-61 -137 -200 -137q-88 0 -138 46q-49 46 -49 122q0 117 215 248h78q-106 -88 -137 -137t-31 -99z" />
    <glyph glyph-name="tilde" unicode="&#x2dc;" horiz-adv-x="378" 
d="M340 1260q-68 0 -160 47q-94 47 -131 47q-78 0 -102 -105h-80q8 78 57 137q90 108 279 15q90 -45 123 -45q77 0 106 98h78q-14 -80 -58 -137t-112 -57z" />
    <glyph glyph-name="hungarumlaut" unicode="&#x2dd;" horiz-adv-x="378" 
d="M37 1208h-105l207 289h156zM356 1208h-104l207 289h155z" />
    <glyph glyph-name="uni0394" unicode="&#x394;" horiz-adv-x="1380" 
d="M1356 0h-1329l571 1458h170zM1126 147l-444 1139l-436 -1139h880z" />
    <glyph glyph-name="uni03A9" unicode="&#x3a9;" horiz-adv-x="1531" 
d="M1409 0h-524v375q174 35 267 159t93 322t-139 335q-139 138 -351 138q-211 0 -353 -139q-142 -138 -142 -334t95 -324t268 -157v-375h-527v137h396v148q-184 51 -290 207q-105 156 -106 354q0 272 193 451t466 179t463 -176q190 -178 191 -450q0 -204 -103 -358
t-290 -207v-148h393v-137z" />
    <glyph glyph-name="uni03BC" unicode="&#x3bc;" horiz-adv-x="1099" 
d="M979 1057v-1057h-119v190h-4q-49 -104 -147 -162t-229 -58t-228 71v-432h-131v1448h129v-688q4 -147 68 -219t218 -72q152 0 233 124t81 300v555h129z" />
    <glyph glyph-name="pi" unicode="&#x3c0;" horiz-adv-x="1167" 
d="M983 -12q-124 0 -152 69t-28 176v607h-504v-840h-154v840h-141v141h1108v-141h-156v-613q0 -53 14 -81t61 -28q46 0 89 21v-116q-74 -35 -137 -35z" />
    <glyph glyph-name="endash" unicode="&#x2013;" horiz-adv-x="1024" 
d="M1024 504h-1024v119h1024v-119z" />
    <glyph glyph-name="emdash" unicode="&#x2014;" horiz-adv-x="2048" 
d="M1782 504h-1516v119h1516v-119z" />
    <glyph glyph-name="quoteleft" unicode="&#x2018;" horiz-adv-x="569" 
d="M367 965h-172v219q0 96 47 176t135 102v-88q-49 -18 -75 -78t-21 -114h86v-217z" />
    <glyph glyph-name="quoteright" unicode="&#x2019;" horiz-adv-x="569" 
d="M203 1462h172v-219q0 -96 -47 -176t-135 -102v88q49 14 75 76q27 62 21 116h-86v217z" />
    <glyph glyph-name="quotesinglbase" unicode="&#x201a;" horiz-adv-x="569" 
d="M203 217h172v-219q0 -96 -47 -176t-135 -103v88q49 15 75 77t21 116h-86v217z" />
    <glyph glyph-name="quotedblleft" unicode="&#x201c;" horiz-adv-x="757" 
d="M618 965h-172v219q0 96 48 176t135 102v-88q-49 -18 -75 -78t-22 -114h86v-217zM303 965h-172v219q0 96 47 176t135 102v-88q-49 -18 -75 -78t-21 -114h86v-217z" />
    <glyph glyph-name="quotedblright" unicode="&#x201d;" horiz-adv-x="757" 
d="M455 1462h172v-219q0 -96 -47 -176t-136 -102v88q49 14 76 76t21 116h-86v217zM139 1462h172v-219q0 -96 -47 -176t-135 -102v88q49 14 76 76t20 116h-86v217z" />
    <glyph glyph-name="quotedblbase" unicode="&#x201e;" horiz-adv-x="757" 
d="M455 217h172v-219q0 -96 -47 -176t-136 -103v88q49 15 76 77t21 116h-86v217zM139 217h172v-219q0 -96 -47 -176t-135 -103v88q49 15 76 77t20 116h-86v217z" />
    <glyph glyph-name="dagger" unicode="&#x2020;" 
d="M504 901h-406v109h406v452h129v-452h407v-109h-407v-1210h-129v1210z" />
    <glyph glyph-name="daggerdbl" unicode="&#x2021;" 
d="M504 96h-406v109h406v743h-406v109h406v405h129v-405h407v-109h-407v-743h407v-109h-407v-405h-129v405z" />
    <glyph glyph-name="bullet" unicode="&#x2022;" horiz-adv-x="1024" 
d="M147 731q1 152 107 258q106 107 258 107t260 -106t107 -259q0 -151 -108 -259q-107 -108 -259 -108t-258 108q-106 107 -107 259z" />
    <glyph glyph-name="ellipsis" unicode="&#x2026;" horiz-adv-x="2048" 
d="M428 0h-172v217h172v-217zM1110 0h-172v217h172v-217zM1792 0h-172v217h172v-217z" />
    <glyph glyph-name="perthousand" unicode="&#x2030;" horiz-adv-x="2275" 
d="M264 -70l928 1555h96l-926 -1555h-98zM1120 662q158 0 232 -94t74 -253q0 -158 -74 -252t-232 -94t-232 94t-73 252q-1 159 73 253t232 94zM1120 569q-196 0 -196 -254t196 -254t197 254q0 254 -197 254zM1845 662q158 0 232 -94q73 -94 73 -253q0 -158 -74 -252
t-231 -94t-231 94t-74 252q0 159 74 253t231 94zM1845 569q-197 0 -197 -254t198 -254q196 0 196 254t-197 254zM438 1446q158 0 232 -94t74 -252t-74 -252t-232 -94t-232 94t-73 252q-1 158 73 252t232 94zM438 1354q-196 0 -196 -254t196 -254t197 254q0 254 -197 254z
" />
    <glyph glyph-name="guilsinglleft" unicode="&#x2039;" horiz-adv-x="530" 
d="M381 244l-272 256v127l272 256v-138l-193 -182l193 -182v-137z" />
    <glyph glyph-name="guilsinglright" unicode="&#x203a;" horiz-adv-x="530" 
d="M150 244v137l192 182l-192 182v138l272 -256v-127z" />
    <glyph glyph-name="fraction" unicode="&#x2044;" horiz-adv-x="342" 
d="M-340 -70l928 1555h96l-926 -1555h-98z" />
    <glyph glyph-name="Euro" unicode="&#x20ac;" 
d="M291 709v-17q0 -10 2 -16h622l-38 -92h-578q27 -213 129 -346q123 -154 324 -154q106 0 187 44t169 132v-158q-158 -133 -360 -133q-256 0 -414 183q-137 162 -168 432h-135l39 92h90q-2 6 -2 18v23q0 14 4 80h-131l37 92h104q45 252 188 401q156 168 405 168t376 -158
l-56 -120q-135 162 -325 162t-302 -129q-112 -128 -149 -324h682l-37 -92h-657q-6 -51 -6 -88z" />
    <glyph glyph-name="afii61289" unicode="&#x2113;" horiz-adv-x="1024" 
d="M698 1214q0 82 -33 135q-34 52 -87 52q-52 0 -92 -66t-40 -192v-477q252 296 252 548zM342 225v267l-121 -132h-4l-43 56l168 172v540q0 164 69 256t166 92t153 -67q56 -68 56 -184q0 -289 -340 -658v-325q0 -102 48 -146t126 -43q80 0 166 80h5l40 -55
q-109 -106 -231 -106t-190 62q-68 64 -68 191z" />
    <glyph glyph-name="trademark" unicode="&#x2122;" horiz-adv-x="2027" 
d="M551 618h-109v752h-274v92h657v-92h-274v-752zM1083 618h-108v844h174l272 -684l265 684h174v-844h-109v746h-4l-299 -746h-62l-299 746h-4v-746z" />
    <glyph glyph-name="Omega" unicode="&#x2126;" horiz-adv-x="1531" 
d="M1409 0h-524v375q174 35 267 159t93 322t-139 335q-139 138 -351 138q-211 0 -353 -139q-142 -138 -142 -334t95 -324t268 -157v-375h-527v137h396v148q-184 51 -290 207q-105 156 -106 354q0 272 193 451t466 179t463 -176q190 -178 191 -450q0 -204 -103 -358
t-290 -207v-148h393v-137z" />
    <glyph glyph-name="estimated" unicode="&#x212e;" horiz-adv-x="1228" 
d="M322 604h596v297q-130 123 -302 123t-294 -123v-297zM322 530v-370q121 -121 296 -121q250 0 396 246l71 -43q-94 -147 -200 -212t-267 -65q-236 0 -382 162q-146 163 -146 405t146 403t382 161t382 -158t149 -408h-827z" />
    <glyph glyph-name="partialdiff" unicode="&#x2202;" horiz-adv-x="1046" 
d="M446 1477q117 0 208 -45q92 -45 148 -118q160 -206 159 -573q1 -223 -41 -367t-92 -220t-138 -127t-205 -52q-188 -1 -303 135q-114 136 -114 324t111 315q113 125 303 125t323 -155l2 92q0 185 -75 349q-38 83 -110 135q-74 53 -176 53t-227 -97l-86 103
q139 123 313 123zM219 430q0 -131 72 -231q72 -101 188 -101t190 84q128 147 128 391q-129 174 -303 175q-129 0 -202 -94t-73 -224z" />
    <glyph glyph-name="Delta" unicode="&#x2206;" horiz-adv-x="1380" 
d="M1356 0h-1329l571 1458h170zM1126 147l-444 1139l-436 -1139h880z" />
    <glyph glyph-name="product" unicode="&#x220f;" horiz-adv-x="1472" 
d="M1331 -438h-160v1900h-872v-1900h-160v2048h1192v-2048z" />
    <glyph glyph-name="summation" unicode="&#x2211;" horiz-adv-x="1259" 
d="M1206 -438h-1155v131l660 901l-631 885v131h1102v-148h-895l616 -868l-653 -885h956v-147z" />
    <glyph glyph-name="minus" unicode="&#x2212;" horiz-adv-x="1228" 
d="M1130 569v-108h-1030v108h1030z" />
    <glyph glyph-name="uni2215" unicode="&#x2215;" horiz-adv-x="342" 
d="M-340 -70l928 1555h96l-926 -1555h-98z" />
    <glyph glyph-name="uni2219" unicode="&#x2219;" horiz-adv-x="569" 
d="M286 768q48 0 84 -37t36 -85t-37 -84t-85 -36t-84 37t-36 85t37 84t85 36z" />
    <glyph glyph-name="radical" unicode="&#x221a;" horiz-adv-x="1032" 
d="M1053 1610l-432 -2048h-154l-332 684l-96 -45l-57 123l229 106l309 -649l377 1829h156z" />
    <glyph glyph-name="infinity" unicode="&#x221e;" horiz-adv-x="1554" 
d="M1165 840q135 0 219 -90t84 -229q0 -138 -82 -229t-219 -91q-178 0 -389 223q-50 -50 -117 -104t-89 -64t-64 -32t-121 -21q-135 0 -218 88t-83 224t81 228t216 93q78 0 157 -41q80 -41 120 -78t118 -115l36 36q30 30 39 38t37 35t41 35t40 28t65 37q65 29 129 29z
M1182 340q68 0 110 50t43 129q0 79 -44 130t-129 51t-172 -75t-124 -111q66 -61 95 -86q29 -24 91 -56t130 -32zM219 514q0 -78 45 -126t125 -48q127 0 301 174q-59 55 -92 83q-32 28 -98 65q-66 36 -130 36t-107 -53q-44 -53 -44 -131z" />
    <glyph glyph-name="integral" unicode="&#x222b;" horiz-adv-x="1134" 
d="M860 1506q0 -46 -24 -68t-62 -21q-38 0 -70 44t-46 44q-42 0 -58 -103q-4 -28 -4 -60v-55l2 -70l2 -80v-1047q0 -244 -31 -342q-55 -184 -227 -184q-53 0 -97 28t-44 67q-1 41 23 63t56 22t63 -43q30 -43 40 -43q59 0 59 237v48l-2 24v1059l-2 175q0 124 14 176
q33 128 89 180q56 51 138 52q81 1 131 -28t50 -75z" />
    <glyph glyph-name="approxequal" unicode="&#x2248;" horiz-adv-x="1214" 
d="M896 551q-107 0 -306 73q-199 72 -261 72q-61 0 -103 -46t-54 -111h-104q14 127 78 215q65 88 186 88q90 0 286 -73t275 -73q123 0 154 154h102q-14 -129 -80 -214t-173 -85zM897 182q-106 0 -307 74t-264 74q-62 0 -104 -47t-50 -113h-106q47 303 264 303q92 0 286 -73
t275 -72q122 -1 153 151h103q-14 -129 -79 -213t-171 -84z" />
    <glyph glyph-name="notequal" unicode="&#x2260;" horiz-adv-x="1214" 
d="M1126 233h-587l-156 -299l-127 66l121 233h-289v148h365l137 260h-502v145h580l157 304l127 -66l-125 -238h299v-145h-374l-138 -260h512v-148z" />
    <glyph glyph-name="lessequal" unicode="&#x2264;" horiz-adv-x="1214" 
d="M1126 168l-1038 377v153l1038 383v-159l-835 -299l835 -297v-158zM1126 -61h-1038v147h1038v-147z" />
    <glyph glyph-name="greaterequal" unicode="&#x2265;" horiz-adv-x="1214" 
d="M1126 545l-1038 -377v158l836 297l-836 299v159l1038 -383v-153zM1126 -61h-1038v147h1038v-147z" />
    <glyph glyph-name="lozenge" unicode="&#x25ca;" horiz-adv-x="1214" 
d="M1032 729l-352 -801h-148l-350 801l350 801h148zM877 729l-271 645l-268 -645l268 -645z" />
    <glyph glyph-name="commaaccent" unicode="&#xf004;" horiz-adv-x="569" 
d="M199 -102h176v-164q0 -141 -176 -150v58q74 14 80 69h-80v187z" />
    <glyph glyph-name="commaaccent" unicode="&#xf6c3;" horiz-adv-x="569" 
d="M199 -102h176v-164q0 -141 -176 -150v58q74 14 80 69h-80v187z" />
    <glyph glyph-name="dotlessj" unicode="&#xf6be;" horiz-adv-x="378" 
d="M125 -129v1186h129v-1155q0 -293 -225 -293l-90 4v106q47 -4 69 -2q70 0 94 39t23 115z" />
    <glyph glyph-name="dotlessj" unicode="&#xfb0f;" horiz-adv-x="378" 
d="M125 -129v1186h129v-1155q0 -293 -225 -293l-90 4v106q47 -4 69 -2q70 0 94 39t23 115z" />
    <glyph glyph-name="uniF8FF" unicode="&#xf8ff;" horiz-adv-x="1048" 
d="M1049 1470v-1470h-1049v1470h1049zM946 102v1264h-844v-1264h844zM524 1145q-145 0 -168 -195l-102 17q14 141 88 211t186 70t185 -74q72 -74 71 -195q0 -70 -26 -123t-103 -122q-76 -68 -88 -108t-12 -147h-94l-4 35q1 115 29 169t92 118q63 59 82 94q20 35 20 93
t-46 107q-46 50 -110 50zM455 240v137h114v-137h-114z" />
    <glyph glyph-name="caron.alt" horiz-adv-x="378" 
d="M453 1462l-177 -288h-96l113 288h160z" />
    <glyph glyph-name="commaaccent.alt" horiz-adv-x="569" 
d="M369 1276h-176v164q0 141 176 149v-57q-74 -14 -80 -70h80v-186z" />
    <glyph glyph-name="grave.cap" horiz-adv-x="378" 
d="M207 1593l-270 289h159l215 -289h-104z" />
    <glyph glyph-name="acute.cap" horiz-adv-x="378" 
d="M442 1882l-270 -289h-104l215 289h159z" />
    <glyph glyph-name="circumflex.cap" horiz-adv-x="378" 
d="M266 1882l234 -289h-133l-177 209l-180 -209h-119l234 289h141z" />
    <glyph glyph-name="caron.cap" horiz-adv-x="378" 
d="M111 1593l-234 289h133l176 -209l181 209h118l-233 -289h-141z" />
    <glyph glyph-name="tilde.cap" horiz-adv-x="378" 
d="M340 1260q-68 0 -160 47q-94 47 -131 47q-78 0 -102 -105h-80q8 78 57 137q90 108 279 15q90 -45 123 -45q77 0 106 98h78q-14 -80 -58 -137t-112 -57z" />
    <glyph glyph-name="dieresis.cap" horiz-adv-x="378" 
d="M440 1638h-139v207h139v-207zM78 1638h-139v207h139v-207z" />
    <glyph glyph-name="macron.cap" horiz-adv-x="378" 
d="M526 1696h-673v92h673v-92z" />
    <glyph glyph-name="breve.cap" horiz-adv-x="378" 
d="M186 1704q82 0 144 45q61 45 73 123h80q-16 -121 -95 -191q-79 -69 -203 -69q-123 0 -201 68t-88 192h79q5 -78 67 -123t144 -45z" />
    <glyph glyph-name="ring.cap" horiz-adv-x="378" 
d="M-29 1761q0 90 65 155q64 64 154 64t155 -64t65 -155t-65 -155t-155 -64t-154 64t-65 155zM51 1761q0 -59 40 -99t99 -40t100 40q40 40 40 99t-40 99t-100 41q-60 -1 -99 -41q-40 -40 -40 -99z" />
    <glyph glyph-name="hungarumlaut.cap" horiz-adv-x="378" 
d="M37 1602h-105l207 288h156zM356 1602h-104l207 288h155z" />
    <glyph glyph-name="dotaccent.cap" horiz-adv-x="378" 
d="M260 1638h-139v207h139v-207z" />
    </font>
</defs>
</svg>
